{"glyphs":{"0":{"ha":608,"x_min":87,"x_max":521,"o":"m 174 87 l 434 87 l 434 0 l 174 0 l 174 87 m 434 694 l 521 694 l 521 87 l 434 87 l 434 434 l 347 434 l 347 521 l 434 521 l 434 694 m 260 434 l 347 434 l 347 347 l 260 347 l 260 434 m 87 694 l 174 694 l 174 347 l 260 347 l 260 260 l 174 260 l 174 87 l 87 87 l 87 694 m 174 781 l 434 781 l 434 694 l 174 694 l 174 781 z "},"1":{"ha":608,"x_min":174,"x_max":434,"o":"m 174 608 l 260 608 l 260 521 l 174 521 l 174 608 m 347 781 l 434 781 l 434 0 l 347 0 l 347 608 l 260 608 l 260 694 l 347 694 l 347 781 z "},"2":{"ha":608,"x_min":87,"x_max":521,"o":"m 87 260 l 174 260 l 174 87 l 521 87 l 521 0 l 87 0 l 87 260 m 174 260 l 174 347 l 260 347 l 260 260 l 174 260 m 260 434 l 347 434 l 347 347 l 260 347 l 260 434 m 347 521 l 434 521 l 434 434 l 347 434 l 347 521 m 434 694 l 521 694 l 521 521 l 434 521 l 434 694 m 174 781 l 434 781 l 434 694 l 174 694 l 174 781 m 87 694 l 174 694 l 174 608 l 87 608 l 87 694 z "},"3":{"ha":608,"x_min":87,"x_max":521,"o":"m 87 174 l 174 174 l 174 87 l 87 87 l 87 174 m 174 87 l 434 87 l 434 0 l 174 0 l 174 87 m 434 347 l 521 347 l 521 87 l 434 87 l 434 347 m 260 434 l 434 434 l 434 347 l 260 347 l 260 434 m 434 694 l 521 694 l 521 434 l 434 434 l 434 694 m 174 781 l 434 781 l 434 694 l 174 694 l 174 781 m 87 694 l 174 694 l 174 608 l 87 608 l 87 694 z "},"4":{"ha":608,"x_min":87,"x_max":521,"o":"m 434 781 l 521 781 l 521 0 l 434 0 l 434 260 l 87 260 l 87 434 l 174 434 l 174 347 l 434 347 l 434 608 l 347 608 l 347 694 l 434 694 l 434 781 m 174 521 l 260 521 l 260 434 l 174 434 l 174 521 m 260 608 l 347 608 l 347 521 l 260 521 l 260 608 z "},"5":{"ha":608,"x_min":87,"x_max":521,"o":"m 87 174 l 174 174 l 174 87 l 87 87 l 87 174 m 174 87 l 434 87 l 434 0 l 174 0 l 174 87 m 434 434 l 521 434 l 521 87 l 434 87 l 434 434 m 87 781 l 521 781 l 521 694 l 174 694 l 174 521 l 434 521 l 434 434 l 87 434 l 87 781 z "},"6":{"ha":608,"x_min":87,"x_max":521,"o":"m 434 347 l 521 347 l 521 87 l 434 87 l 434 347 m 174 87 l 434 87 l 434 0 l 174 0 l 174 87 m 87 694 l 174 694 l 174 434 l 434 434 l 434 347 l 174 347 l 174 87 l 87 87 l 87 694 m 174 781 l 434 781 l 434 694 l 174 694 l 174 781 m 434 694 l 521 694 l 521 608 l 434 608 l 434 694 z "},"7":{"ha":608,"x_min":87,"x_max":521,"o":"m 87 260 l 174 260 l 174 0 l 87 0 l 87 260 m 174 347 l 260 347 l 260 260 l 174 260 l 174 347 m 260 434 l 347 434 l 347 347 l 260 347 l 260 434 m 347 521 l 434 521 l 434 434 l 347 434 l 347 521 m 87 781 l 521 781 l 521 521 l 434 521 l 434 694 l 87 694 l 87 781 z "},"8":{"ha":608,"x_min":87,"x_max":521,"o":"m 87 694 l 174 694 l 174 434 l 87 434 l 87 694 m 434 347 l 521 347 l 521 87 l 434 87 l 434 347 m 174 87 l 434 87 l 434 0 l 174 0 l 174 87 m 87 347 l 174 347 l 174 87 l 87 87 l 87 347 m 174 434 l 434 434 l 434 347 l 174 347 l 174 434 m 434 694 l 521 694 l 521 434 l 434 434 l 434 694 m 174 781 l 434 781 l 434 694 l 174 694 l 174 781 z "},"9":{"ha":608,"x_min":87,"x_max":521,"o":"m 87 694 l 174 694 l 174 434 l 87 434 l 87 694 m 174 781 l 434 781 l 434 694 l 174 694 l 174 781 m 434 694 l 521 694 l 521 87 l 434 87 l 434 347 l 174 347 l 174 434 l 434 434 l 434 694 m 174 87 l 434 87 l 434 0 l 174 0 l 174 87 m 87 174 l 174 174 l 174 87 l 87 87 l 87 174 z "}," ":{"ha":347,"x_min":0,"x_max":0,"o":""},"!":{"ha":434,"x_min":174,"x_max":260,"o":"m 174 781 l 260 781 l 260 174 l 174 174 l 174 781 m 174 87 l 260 87 l 260 0 l 174 0 l 174 87 z "},"\"":{"ha":608,"x_min":174,"x_max":434,"o":"m 174 781 l 260 781 l 260 521 l 174 521 l 174 781 m 347 781 l 434 781 l 434 521 l 347 521 l 347 781 z "},"#":{"ha":694,"x_min":87,"x_max":608,"o":"m 174 781 l 260 781 l 260 608 l 434 608 l 434 781 l 521 781 l 521 608 l 608 608 l 608 521 l 521 521 l 521 260 l 608 260 l 608 174 l 521 174 l 521 0 l 434 0 l 434 174 l 260 174 l 260 0 l 174 0 l 174 174 l 87 174 l 87 260 l 174 260 l 174 521 l 87 521 l 87 608 l 174 608 l 174 781 m 434 521 l 260 521 l 260 260 l 434 260 l 434 521 z "},"$":{"ha":608,"x_min":87,"x_max":521,"o":"m 434 694 l 521 694 l 521 608 l 434 608 l 434 694 m 87 174 l 174 174 l 174 87 l 87 87 l 87 174 m 434 347 l 521 347 l 521 87 l 434 87 l 434 347 m 87 694 l 174 694 l 174 434 l 87 434 l 87 694 m 260 955 l 347 955 l 347 781 l 434 781 l 434 694 l 347 694 l 347 434 l 434 434 l 434 347 l 347 347 l 347 87 l 434 87 l 434 0 l 347 0 l 347 -174 l 260 -174 l 260 0 l 174 0 l 174 87 l 260 87 l 260 347 l 174 347 l 174 434 l 260 434 l 260 694 l 174 694 l 174 781 l 260 781 l 260 955 z "},"%":{"ha":781,"x_min":87,"x_max":694,"o":"m 608 260 l 694 260 l 694 87 l 608 87 l 608 260 m 521 87 l 608 87 l 608 0 l 521 0 l 521 87 m 434 260 l 521 260 l 521 87 l 434 87 l 434 260 m 521 347 l 608 347 l 608 260 l 521 260 l 521 347 m 174 260 l 260 260 l 260 174 l 174 174 l 174 260 m 260 347 l 347 347 l 347 260 l 260 260 l 260 347 m 347 434 l 434 434 l 434 347 l 347 347 l 347 434 m 434 521 l 521 521 l 521 434 l 434 434 l 434 521 m 521 608 l 608 608 l 608 521 l 521 521 l 521 608 m 260 694 l 347 694 l 347 521 l 260 521 l 260 694 m 174 521 l 260 521 l 260 434 l 174 434 l 174 521 m 87 694 l 174 694 l 174 521 l 87 521 l 87 694 m 174 781 l 260 781 l 260 694 l 174 694 l 174 781 z "},"&":{"ha":608,"x_min":87,"x_max":521,"o":"m 434 347 l 521 347 l 521 0 l 174 0 l 174 87 l 434 87 l 434 347 m 87 347 l 174 347 l 174 87 l 87 87 l 87 347 m 174 434 l 434 434 l 434 347 l 174 347 l 174 434 m 87 694 l 174 694 l 174 434 l 87 434 l 87 694 m 174 781 l 434 781 l 434 694 l 174 694 l 174 781 m 434 694 l 521 694 l 521 608 l 434 608 l 434 694 z "},"'":{"ha":434,"x_min":174,"x_max":260,"o":"m 174 781 l 260 781 l 260 521 l 174 521 l 174 781 z "},"(":{"ha":608,"x_min":260,"x_max":521,"o":"m 434 87 l 521 87 l 521 0 l 434 0 l 434 87 m 347 174 l 434 174 l 434 87 l 347 87 l 347 174 m 260 608 l 347 608 l 347 174 l 260 174 l 260 608 m 347 694 l 434 694 l 434 608 l 347 608 l 347 694 m 434 781 l 521 781 l 521 694 l 434 694 l 434 781 z "},")":{"ha":608,"x_min":87,"x_max":347,"o":"m 87 87 l 174 87 l 174 0 l 87 0 l 87 87 m 174 174 l 260 174 l 260 87 l 174 87 l 174 174 m 260 608 l 347 608 l 347 174 l 260 174 l 260 608 m 174 694 l 260 694 l 260 608 l 174 608 l 174 694 m 87 781 l 174 781 l 174 694 l 87 694 l 87 781 z "},"*":{"ha":608,"x_min":87,"x_max":521,"o":"m 434 521 l 521 521 l 521 434 l 434 434 l 434 521 m 87 521 l 174 521 l 174 434 l 87 434 l 87 521 m 87 694 l 174 694 l 174 608 l 87 608 l 87 694 m 434 694 l 521 694 l 521 608 l 434 608 l 434 694 m 260 781 l 347 781 l 347 608 l 434 608 l 434 521 l 347 521 l 347 347 l 260 347 l 260 521 l 174 521 l 174 608 l 260 608 l 260 781 z "},"+":{"ha":608,"x_min":87,"x_max":521,"o":"m 260 608 l 347 608 l 347 434 l 521 434 l 521 347 l 347 347 l 347 174 l 260 174 l 260 347 l 87 347 l 87 434 l 260 434 l 260 608 z "},",":{"ha":434,"x_min":87,"x_max":260,"o":"m 87 -87 l 174 -87 l 174 -174 l 87 -174 l 87 -87 m 174 87 l 260 87 l 260 -87 l 174 -87 l 174 87 z "},"-":{"ha":521,"x_min":87,"x_max":434,"o":"m 87 434 l 434 434 l 434 347 l 87 347 l 87 434 z "},".":{"ha":434,"x_min":174,"x_max":260,"o":"m 174 87 l 260 87 l 260 0 l 174 0 l 174 87 z "},"/":{"ha":434,"x_min":87,"x_max":347,"o":"m 87 260 l 174 260 l 174 0 l 87 0 l 87 260 m 174 521 l 260 521 l 260 260 l 174 260 l 174 521 m 260 781 l 347 781 l 347 521 l 260 521 l 260 781 z "},":":{"ha":434,"x_min":174,"x_max":260,"o":"m 174 87 l 260 87 l 260 0 l 174 0 l 174 87 m 174 608 l 260 608 l 260 521 l 174 521 l 174 608 z "},";":{"ha":434,"x_min":87,"x_max":260,"o":"m 174 608 l 260 608 l 260 521 l 174 521 l 174 608 m 87 -87 l 174 -87 l 174 -174 l 87 -174 l 87 -87 m 174 87 l 260 87 l 260 -87 l 174 -87 l 174 87 z "},"<":{"ha":434,"x_min":87,"x_max":347,"o":"m 87 434 l 174 434 l 174 347 l 87 347 l 87 434 m 174 521 l 260 521 l 260 434 l 174 434 l 174 521 m 260 608 l 347 608 l 347 521 l 260 521 l 260 608 m 260 260 l 347 260 l 347 174 l 260 174 l 260 260 m 174 347 l 260 347 l 260 260 l 174 260 l 174 347 z "},"=":{"ha":521,"x_min":87,"x_max":434,"o":"m 87 521 l 434 521 l 434 434 l 87 434 l 87 521 m 87 347 l 434 347 l 434 260 l 87 260 l 87 347 z "},">":{"ha":434,"x_min":87,"x_max":347,"o":"m 87 260 l 174 260 l 174 174 l 87 174 l 87 260 m 174 347 l 260 347 l 260 260 l 174 260 l 174 347 m 260 434 l 347 434 l 347 347 l 260 347 l 260 434 m 174 521 l 260 521 l 260 434 l 174 434 l 174 521 m 87 608 l 174 608 l 174 521 l 87 521 l 87 608 z "},"?":{"ha":608,"x_min":87,"x_max":521,"o":"m 260 87 l 347 87 l 347 0 l 260 0 l 260 87 m 260 434 l 347 434 l 347 174 l 260 174 l 260 434 m 347 521 l 434 521 l 434 434 l 347 434 l 347 521 m 434 694 l 521 694 l 521 521 l 434 521 l 434 694 m 174 781 l 434 781 l 434 694 l 174 694 l 174 781 m 87 694 l 174 694 l 174 608 l 87 608 l 87 694 z "},"@":{"ha":781,"x_min":87,"x_max":694,"o":"m 260 521 l 347 521 l 347 260 l 260 260 l 260 521 m 347 608 l 521 608 l 521 260 l 608 260 l 608 174 l 347 174 l 347 260 l 434 260 l 434 521 l 347 521 l 347 608 m 608 694 l 694 694 l 694 260 l 608 260 l 608 694 m 174 87 l 608 87 l 608 0 l 174 0 l 174 87 m 87 694 l 174 694 l 174 87 l 87 87 l 87 694 m 174 781 l 608 781 l 608 694 l 174 694 l 174 781 z "},"A":{"ha":608,"x_min":87,"x_max":521,"o":"m 87 694 l 174 694 l 174 347 l 434 347 l 434 694 l 521 694 l 521 0 l 434 0 l 434 260 l 174 260 l 174 0 l 87 0 l 87 694 m 174 781 l 434 781 l 434 694 l 174 694 l 174 781 z "},"B":{"ha":608,"x_min":87,"x_max":521,"o":"m 434 694 l 521 694 l 521 434 l 434 434 l 434 694 m 434 347 l 521 347 l 521 87 l 434 87 l 434 347 m 87 781 l 434 781 l 434 694 l 174 694 l 174 434 l 434 434 l 434 347 l 174 347 l 174 87 l 434 87 l 434 0 l 87 0 l 87 781 z "},"C":{"ha":608,"x_min":87,"x_max":521,"o":"m 434 174 l 521 174 l 521 87 l 434 87 l 434 174 m 174 87 l 434 87 l 434 0 l 174 0 l 174 87 m 87 694 l 174 694 l 174 87 l 87 87 l 87 694 m 174 781 l 434 781 l 434 694 l 174 694 l 174 781 m 434 694 l 521 694 l 521 608 l 434 608 l 434 694 z "},"D":{"ha":608,"x_min":87,"x_max":521,"o":"m 434 694 l 521 694 l 521 87 l 434 87 l 434 694 m 87 781 l 434 781 l 434 694 l 174 694 l 174 87 l 434 87 l 434 0 l 87 0 l 87 781 z "},"E":{"ha":608,"x_min":87,"x_max":521,"o":"m 87 781 l 521 781 l 521 694 l 174 694 l 174 434 l 347 434 l 347 347 l 174 347 l 174 87 l 521 87 l 521 0 l 87 0 l 87 781 z "},"F":{"ha":608,"x_min":87,"x_max":521,"o":"m 87 781 l 521 781 l 521 694 l 174 694 l 174 434 l 347 434 l 347 347 l 174 347 l 174 0 l 87 0 l 87 781 z "},"G":{"ha":608,"x_min":87,"x_max":521,"o":"m 347 434 l 521 434 l 521 0 l 174 0 l 174 87 l 434 87 l 434 347 l 347 347 l 347 434 m 87 694 l 174 694 l 174 87 l 87 87 l 87 694 m 174 781 l 434 781 l 434 694 l 174 694 l 174 781 m 434 694 l 521 694 l 521 608 l 434 608 l 434 694 z "},"H":{"ha":608,"x_min":87,"x_max":521,"o":"m 87 781 l 174 781 l 174 434 l 434 434 l 434 781 l 521 781 l 521 0 l 434 0 l 434 347 l 174 347 l 174 0 l 87 0 l 87 781 z "},"I":{"ha":434,"x_min":174,"x_max":260,"o":"m 174 781 l 260 781 l 260 0 l 174 0 l 174 781 z "},"J":{"ha":608,"x_min":87,"x_max":521,"o":"m 434 781 l 521 781 l 521 87 l 434 87 l 434 781 m 174 87 l 434 87 l 434 0 l 174 0 l 174 87 m 87 174 l 174 174 l 174 87 l 87 87 l 87 174 z "},"K":{"ha":608,"x_min":87,"x_max":521,"o":"m 434 174 l 521 174 l 521 0 l 434 0 l 434 174 m 347 260 l 434 260 l 434 174 l 347 174 l 347 260 m 260 347 l 347 347 l 347 260 l 260 260 l 260 347 m 87 781 l 174 781 l 174 434 l 260 434 l 260 347 l 174 347 l 174 0 l 87 0 l 87 781 m 260 521 l 347 521 l 347 434 l 260 434 l 260 521 m 347 608 l 434 608 l 434 521 l 347 521 l 347 608 m 434 781 l 521 781 l 521 608 l 434 608 l 434 781 z "},"L":{"ha":608,"x_min":87,"x_max":521,"o":"m 87 781 l 174 781 l 174 87 l 521 87 l 521 0 l 87 0 l 87 781 z "},"M":{"ha":781,"x_min":87,"x_max":694,"o":"m 608 781 l 694 781 l 694 0 l 608 0 l 608 521 l 521 521 l 521 608 l 608 608 l 608 781 m 434 521 l 521 521 l 521 434 l 434 434 l 434 521 m 347 434 l 434 434 l 434 347 l 347 347 l 347 434 m 260 521 l 347 521 l 347 434 l 260 434 l 260 521 m 87 781 l 174 781 l 174 608 l 260 608 l 260 521 l 174 521 l 174 0 l 87 0 l 87 781 z "},"N":{"ha":608,"x_min":87,"x_max":521,"o":"m 434 781 l 521 781 l 521 0 l 434 0 l 434 260 l 347 260 l 347 347 l 434 347 l 434 781 m 260 434 l 347 434 l 347 347 l 260 347 l 260 434 m 87 781 l 174 781 l 174 521 l 260 521 l 260 434 l 174 434 l 174 0 l 87 0 l 87 781 z "},"O":{"ha":608,"x_min":87,"x_max":521,"o":"m 434 694 l 521 694 l 521 87 l 434 87 l 434 694 m 174 87 l 434 87 l 434 0 l 174 0 l 174 87 m 87 694 l 174 694 l 174 87 l 87 87 l 87 694 m 174 781 l 434 781 l 434 694 l 174 694 l 174 781 z "},"P":{"ha":608,"x_min":87,"x_max":521,"o":"m 434 694 l 521 694 l 521 434 l 434 434 l 434 694 m 87 781 l 434 781 l 434 694 l 174 694 l 174 434 l 434 434 l 434 347 l 174 347 l 174 0 l 87 0 l 87 781 z "},"Q":{"ha":608,"x_min":87,"x_max":521,"o":"m 434 87 l 521 87 l 521 0 l 434 0 l 434 87 m 347 174 l 434 174 l 434 87 l 347 87 l 347 174 m 260 260 l 347 260 l 347 174 l 260 174 l 260 260 m 174 87 l 347 87 l 347 0 l 174 0 l 174 87 m 87 694 l 174 694 l 174 87 l 87 87 l 87 694 m 174 781 l 434 781 l 434 694 l 174 694 l 174 781 m 434 694 l 521 694 l 521 174 l 434 174 l 434 694 z "},"R":{"ha":608,"x_min":87,"x_max":521,"o":"m 87 781 l 434 781 l 434 694 l 174 694 l 174 434 l 434 434 l 434 347 l 347 347 l 347 260 l 260 260 l 260 347 l 174 347 l 174 0 l 87 0 l 87 781 m 434 694 l 521 694 l 521 434 l 434 434 l 434 694 m 347 260 l 434 260 l 434 174 l 347 174 l 347 260 m 434 174 l 521 174 l 521 0 l 434 0 l 434 174 z "},"S":{"ha":608,"x_min":87,"x_max":521,"o":"m 87 694 l 174 694 l 174 434 l 87 434 l 87 694 m 434 347 l 521 347 l 521 87 l 434 87 l 434 347 m 174 87 l 434 87 l 434 0 l 174 0 l 174 87 m 87 174 l 174 174 l 174 87 l 87 87 l 87 174 m 174 434 l 434 434 l 434 347 l 174 347 l 174 434 m 434 694 l 521 694 l 521 608 l 434 608 l 434 694 m 174 781 l 434 781 l 434 694 l 174 694 l 174 781 z "},"T":{"ha":608,"x_min":87,"x_max":521,"o":"m 87 781 l 521 781 l 521 694 l 347 694 l 347 0 l 260 0 l 260 694 l 87 694 l 87 781 z "},"U":{"ha":608,"x_min":87,"x_max":521,"o":"m 434 781 l 521 781 l 521 87 l 434 87 l 434 781 m 174 87 l 434 87 l 434 0 l 174 0 l 174 87 m 87 781 l 174 781 l 174 87 l 87 87 l 87 781 z "},"V":{"ha":608,"x_min":87,"x_max":521,"o":"m 434 781 l 521 781 l 521 174 l 434 174 l 434 781 m 347 174 l 434 174 l 434 87 l 347 87 l 347 174 m 260 87 l 347 87 l 347 0 l 260 0 l 260 87 m 174 174 l 260 174 l 260 87 l 174 87 l 174 174 m 87 781 l 174 781 l 174 174 l 87 174 l 87 781 z "},"W":{"ha":781,"x_min":87,"x_max":694,"o":"m 608 781 l 694 781 l 694 87 l 608 87 l 608 781 m 434 87 l 608 87 l 608 0 l 434 0 l 434 87 m 347 608 l 434 608 l 434 87 l 347 87 l 347 608 m 174 87 l 347 87 l 347 0 l 174 0 l 174 87 m 87 781 l 174 781 l 174 87 l 87 87 l 87 781 z "},"X":{"ha":608,"x_min":87,"x_max":521,"o":"m 87 260 l 174 260 l 174 0 l 87 0 l 87 260 m 174 347 l 260 347 l 260 260 l 174 260 l 174 347 m 260 434 l 347 434 l 347 347 l 260 347 l 260 434 m 347 521 l 434 521 l 434 434 l 347 434 l 347 521 m 434 781 l 521 781 l 521 521 l 434 521 l 434 781 m 434 260 l 521 260 l 521 0 l 434 0 l 434 260 m 347 347 l 434 347 l 434 260 l 347 260 l 347 347 m 174 521 l 260 521 l 260 434 l 174 434 l 174 521 m 87 781 l 174 781 l 174 521 l 87 521 l 87 781 z "},"Y":{"ha":608,"x_min":87,"x_max":521,"o":"m 434 781 l 521 781 l 521 521 l 434 521 l 434 781 m 347 521 l 434 521 l 434 434 l 347 434 l 347 521 m 260 434 l 347 434 l 347 0 l 260 0 l 260 434 m 174 521 l 260 521 l 260 434 l 174 434 l 174 521 m 87 781 l 174 781 l 174 521 l 87 521 l 87 781 z "},"Z":{"ha":608,"x_min":87,"x_max":521,"o":"m 87 260 l 174 260 l 174 87 l 521 87 l 521 0 l 87 0 l 87 260 m 174 260 l 174 347 l 260 347 l 260 260 l 174 260 m 260 347 l 260 434 l 347 434 l 347 347 l 260 347 m 347 434 l 347 521 l 434 521 l 434 434 l 347 434 m 87 781 l 521 781 l 521 521 l 434 521 l 434 694 l 87 694 l 87 781 z "},"[":{"ha":608,"x_min":260,"x_max":521,"o":"m 260 781 l 521 781 l 521 694 l 347 694 l 347 87 l 521 87 l 521 0 l 260 0 l 260 781 z "},"\\":{"ha":434,"x_min":87,"x_max":347,"o":"m 174 521 l 260 521 l 260 260 l 174 260 l 174 521 m 260 260 l 347 260 l 347 0 l 260 0 l 260 260 m 87 781 l 174 781 l 174 521 l 87 521 l 87 781 z "},"]":{"ha":608,"x_min":87,"x_max":347,"o":"m 87 781 l 347 781 l 347 0 l 87 0 l 87 87 l 260 87 l 260 694 l 87 694 l 87 781 z "},"^":{"ha":608,"x_min":87,"x_max":521,"o":"m 87 608 l 174 608 l 174 521 l 87 521 l 87 608 m 174 694 l 260 694 l 260 608 l 174 608 l 174 694 m 260 781 l 347 781 l 347 694 l 260 694 l 260 781 m 434 608 l 521 608 l 521 521 l 434 521 l 434 608 m 347 694 l 434 694 l 434 608 l 347 608 l 347 694 z "},"_":{"ha":434,"x_min":0,"x_max":434,"o":"m 0 -87 l 434 -87 l 434 -174 l 0 -174 l 0 -87 z "},"`":{"ha":434,"x_min":87,"x_max":260,"o":"m 87 781 l 174 781 l 174 694 l 87 694 l 87 781 m 174 694 l 260 694 l 260 608 l 174 608 l 174 694 z "},"a":{"ha":608,"x_min":87,"x_max":521,"o":"m 87 521 l 174 521 l 174 434 l 87 434 l 87 521 m 87 260 l 174 260 l 174 87 l 87 87 l 87 260 m 434 521 l 521 521 l 521 0 l 174 0 l 174 87 l 434 87 l 434 260 l 174 260 l 174 347 l 434 347 l 434 521 m 174 608 l 434 608 l 434 521 l 174 521 l 174 608 z "},"b":{"ha":608,"x_min":87,"x_max":521,"o":"m 434 521 l 521 521 l 521 87 l 434 87 l 434 521 m 87 781 l 174 781 l 174 608 l 434 608 l 434 521 l 174 521 l 174 87 l 434 87 l 434 0 l 87 0 l 87 781 z "},"c":{"ha":608,"x_min":87,"x_max":521,"o":"m 434 174 l 521 174 l 521 87 l 434 87 l 434 174 m 174 87 l 434 87 l 434 0 l 174 0 l 174 87 m 87 521 l 174 521 l 174 87 l 87 87 l 87 521 m 174 608 l 434 608 l 434 521 l 174 521 l 174 608 m 434 521 l 521 521 l 521 434 l 434 434 l 434 521 z "},"d":{"ha":608,"x_min":87,"x_max":521,"o":"m 87 521 l 174 521 l 174 87 l 87 87 l 87 521 m 434 781 l 521 781 l 521 0 l 174 0 l 174 87 l 434 87 l 434 521 l 174 521 l 174 608 l 434 608 l 434 781 z "},"e":{"ha":608,"x_min":87,"x_max":521,"o":"m 434 174 l 521 174 l 521 87 l 434 87 l 434 174 m 174 87 l 434 87 l 434 0 l 174 0 l 174 87 m 87 521 l 174 521 l 174 347 l 434 347 l 434 521 l 521 521 l 521 260 l 174 260 l 174 87 l 87 87 l 87 521 m 174 608 l 434 608 l 434 521 l 174 521 l 174 608 z "},"f":{"ha":521,"x_min":87,"x_max":434,"o":"m 174 694 l 260 694 l 260 521 l 434 521 l 434 434 l 260 434 l 260 0 l 174 0 l 174 434 l 87 434 l 87 521 l 174 521 l 174 694 m 260 781 l 434 781 l 434 694 l 260 694 l 260 781 z "},"g":{"ha":608,"x_min":87,"x_max":521,"o":"m 87 0 l 174 0 l 174 -87 l 87 -87 l 87 0 m 174 -87 l 434 -87 l 434 -174 l 174 -174 l 174 -87 m 174 608 l 521 608 l 521 -87 l 434 -87 l 434 87 l 174 87 l 174 174 l 434 174 l 434 521 l 174 521 l 174 608 m 87 521 l 174 521 l 174 174 l 87 174 l 87 521 z "},"h":{"ha":608,"x_min":87,"x_max":521,"o":"m 434 521 l 521 521 l 521 0 l 434 0 l 434 521 m 87 781 l 174 781 l 174 608 l 434 608 l 434 521 l 174 521 l 174 0 l 87 0 l 87 781 z "},"i":{"ha":434,"x_min":174,"x_max":260,"o":"m 174 608 l 260 608 l 260 0 l 174 0 l 174 608 m 174 781 l 260 781 l 260 694 l 174 694 l 174 781 z "},"j":{"ha":608,"x_min":87,"x_max":521,"o":"m 434 781 l 521 781 l 521 694 l 434 694 l 434 781 m 434 608 l 521 608 l 521 -87 l 434 -87 l 434 608 m 174 -87 l 434 -87 l 434 -174 l 174 -174 l 174 -87 m 87 0 l 174 0 l 174 -87 l 87 -87 l 87 0 z "},"k":{"ha":608,"x_min":87,"x_max":521,"o":"m 434 87 l 521 87 l 521 0 l 434 0 l 434 87 m 347 174 l 434 174 l 434 87 l 347 87 l 347 174 m 260 260 l 347 260 l 347 174 l 260 174 l 260 260 m 87 781 l 174 781 l 174 347 l 260 347 l 260 260 l 174 260 l 174 0 l 87 0 l 87 781 m 260 434 l 347 434 l 347 347 l 260 347 l 260 434 m 347 521 l 434 521 l 434 434 l 347 434 l 347 521 m 434 608 l 521 608 l 521 521 l 434 521 l 434 608 z "},"l":{"ha":434,"x_min":174,"x_max":347,"o":"m 174 781 l 260 781 l 260 87 l 174 87 l 174 781 m 260 87 l 347 87 l 347 0 l 260 0 l 260 87 z "},"m":{"ha":781,"x_min":87,"x_max":694,"o":"m 608 521 l 694 521 l 694 0 l 608 0 l 608 521 m 434 608 l 608 608 l 608 521 l 434 521 l 434 608 m 347 521 l 434 521 l 434 174 l 347 174 l 347 521 m 87 608 l 347 608 l 347 521 l 174 521 l 174 0 l 87 0 l 87 608 z "},"n":{"ha":608,"x_min":87,"x_max":521,"o":"m 434 521 l 521 521 l 521 0 l 434 0 l 434 521 m 87 608 l 434 608 l 434 521 l 174 521 l 174 0 l 87 0 l 87 608 z "},"o":{"ha":608,"x_min":87,"x_max":521,"o":"m 434 521 l 521 521 l 521 87 l 434 87 l 434 521 m 174 87 l 434 87 l 434 0 l 174 0 l 174 87 m 87 521 l 174 521 l 174 87 l 87 87 l 87 521 m 174 608 l 434 608 l 434 521 l 174 521 l 174 608 z "},"p":{"ha":608,"x_min":87,"x_max":521,"o":"m 434 521 l 521 521 l 521 87 l 434 87 l 434 521 m 87 608 l 434 608 l 434 521 l 174 521 l 174 87 l 434 87 l 434 0 l 174 0 l 174 -174 l 87 -174 l 87 608 z "},"q":{"ha":608,"x_min":87,"x_max":521,"o":"m 174 608 l 521 608 l 521 -174 l 434 -174 l 434 0 l 174 0 l 174 87 l 434 87 l 434 521 l 174 521 l 174 608 m 87 521 l 174 521 l 174 87 l 87 87 l 87 521 z "},"r":{"ha":608,"x_min":87,"x_max":521,"o":"m 347 608 l 521 608 l 521 521 l 347 521 l 347 608 m 260 521 l 347 521 l 347 434 l 260 434 l 260 521 m 87 608 l 174 608 l 174 434 l 260 434 l 260 347 l 174 347 l 174 0 l 87 0 l 87 608 z "},"s":{"ha":608,"x_min":87,"x_max":521,"o":"m 87 521 l 174 521 l 174 347 l 87 347 l 87 521 m 434 260 l 521 260 l 521 87 l 434 87 l 434 260 m 174 87 l 434 87 l 434 0 l 174 0 l 174 87 m 87 174 l 174 174 l 174 87 l 87 87 l 87 174 m 174 347 l 434 347 l 434 260 l 174 260 l 174 347 m 434 521 l 521 521 l 521 434 l 434 434 l 434 521 m 174 608 l 434 608 l 434 521 l 174 521 l 174 608 z "},"t":{"ha":521,"x_min":87,"x_max":434,"o":"m 174 694 l 260 694 l 260 608 l 434 608 l 434 521 l 260 521 l 260 87 l 174 87 l 174 521 l 87 521 l 87 608 l 174 608 l 174 694 m 260 87 l 434 87 l 434 0 l 260 0 l 260 87 z "},"u":{"ha":608,"x_min":87,"x_max":521,"o":"m 434 608 l 521 608 l 521 87 l 434 87 l 434 608 m 174 87 l 434 87 l 434 0 l 174 0 l 174 87 m 87 608 l 174 608 l 174 87 l 87 87 l 87 608 z "},"v":{"ha":608,"x_min":87,"x_max":521,"o":"m 434 608 l 521 608 l 521 174 l 434 174 l 434 608 m 347 174 l 434 174 l 434 87 l 347 87 l 347 174 m 260 87 l 347 87 l 347 0 l 260 0 l 260 87 m 174 174 l 260 174 l 260 87 l 174 87 l 174 174 m 87 608 l 174 608 l 174 174 l 87 174 l 87 608 z "},"w":{"ha":781,"x_min":87,"x_max":694,"o":"m 608 608 l 694 608 l 694 87 l 608 87 l 608 608 m 434 87 l 608 87 l 608 0 l 434 0 l 434 87 m 347 434 l 434 434 l 434 87 l 347 87 l 347 434 m 174 87 l 347 87 l 347 0 l 174 0 l 174 87 m 87 608 l 174 608 l 174 87 l 87 87 l 87 608 z "},"x":{"ha":608,"x_min":87,"x_max":521,"o":"m 87 174 l 174 174 l 174 0 l 87 0 l 87 174 m 174 260 l 260 260 l 260 174 l 174 174 l 174 260 m 260 347 l 347 347 l 347 260 l 260 260 l 260 347 m 347 434 l 434 434 l 434 347 l 347 347 l 347 434 m 434 608 l 521 608 l 521 434 l 434 434 l 434 608 m 434 174 l 521 174 l 521 0 l 434 0 l 434 174 m 347 260 l 434 260 l 434 174 l 347 174 l 347 260 m 174 434 l 260 434 l 260 347 l 174 347 l 174 434 m 87 608 l 174 608 l 174 434 l 87 434 l 87 608 z "},"y":{"ha":608,"x_min":87,"x_max":521,"o":"m 87 0 l 174 0 l 174 -87 l 87 -87 l 87 0 m 174 -87 l 434 -87 l 434 -174 l 174 -174 l 174 -87 m 434 608 l 521 608 l 521 -87 l 434 -87 l 434 87 l 174 87 l 174 174 l 434 174 l 434 608 m 87 608 l 174 608 l 174 174 l 87 174 l 87 608 z "},"z":{"ha":608,"x_min":87,"x_max":521,"o":"m 87 174 l 174 174 l 174 87 l 521 87 l 521 0 l 87 0 l 87 174 m 174 174 l 174 260 l 260 260 l 260 174 l 174 174 m 260 260 l 260 347 l 347 347 l 347 260 l 260 260 m 347 347 l 347 434 l 434 434 l 434 347 l 347 347 m 87 608 l 521 608 l 521 434 l 434 434 l 434 521 l 87 521 l 87 608 z "},"{":{"ha":608,"x_min":174,"x_max":521,"o":"m 174 434 l 260 434 l 260 347 l 174 347 l 174 434 m 260 694 l 347 694 l 347 434 l 260 434 l 260 694 m 347 781 l 521 781 l 521 694 l 347 694 l 347 781 m 347 87 l 521 87 l 521 0 l 347 0 l 347 87 m 260 347 l 347 347 l 347 87 l 260 87 l 260 347 z "},"|":{"ha":434,"x_min":174,"x_max":260,"o":"m 174 781 l 260 781 l 260 0 l 174 0 l 174 781 z "},"}":{"ha":608,"x_min":87,"x_max":434,"o":"m 87 87 l 260 87 l 260 0 l 87 0 l 87 87 m 260 347 l 347 347 l 347 87 l 260 87 l 260 347 m 347 434 l 434 434 l 434 347 l 347 347 l 347 434 m 260 694 l 347 694 l 347 434 l 260 434 l 260 694 m 87 781 l 260 781 l 260 694 l 87 694 l 87 781 z "},"~":{"ha":694,"x_min":87,"x_max":608,"o":"m 347 694 l 521 694 l 521 608 l 347 608 l 347 694 m 521 781 l 608 781 l 608 694 l 521 694 l 521 781 m 87 694 l 174 694 l 174 608 l 87 608 l 87 694 m 174 781 l 347 781 l 347 694 l 174 694 l 174 781 z "}," ":{"ha":347,"x_min":0,"x_max":0,"o":""},"¡":{"ha":434,"x_min":174,"x_max":260,"o":"m 260 -174 l 174 -174 l 174 434 l 260 434 l 260 -174 m 260 521 l 174 521 l 174 608 l 260 608 l 260 521 z "},"¢":{"ha":608,"x_min":87,"x_max":521,"o":"m 434 174 l 521 174 l 521 87 l 434 87 l 434 174 m 260 781 l 347 781 l 347 608 l 434 608 l 434 521 l 347 521 l 347 87 l 434 87 l 434 0 l 347 0 l 347 -174 l 260 -174 l 260 0 l 174 0 l 174 87 l 260 87 l 260 521 l 174 521 l 174 608 l 260 608 l 260 781 m 87 521 l 174 521 l 174 87 l 87 87 l 87 521 m 434 521 l 521 521 l 521 434 l 434 434 l 434 521 z "},"£":{"ha":694,"x_min":87,"x_max":608,"o":"m 521 174 l 608 174 l 608 87 l 521 87 l 521 174 m 174 694 l 260 694 l 260 434 l 434 434 l 434 347 l 260 347 l 260 87 l 521 87 l 521 0 l 87 0 l 87 87 l 174 87 l 174 347 l 87 347 l 87 434 l 174 434 l 174 694 m 260 781 l 521 781 l 521 694 l 260 694 l 260 781 m 521 694 l 608 694 l 608 608 l 521 608 l 521 694 z "},"¥":{"ha":608,"x_min":87,"x_max":521,"o":"m 87 781 l 174 781 l 174 521 l 87 521 l 87 781 m 174 521 l 260 521 l 260 434 l 174 434 l 174 521 m 260 434 l 347 434 l 347 347 l 521 347 l 521 260 l 347 260 l 347 174 l 521 174 l 521 87 l 347 87 l 347 0 l 260 0 l 260 87 l 87 87 l 87 174 l 260 174 l 260 260 l 87 260 l 87 347 l 260 347 l 260 434 m 347 521 l 434 521 l 434 434 l 347 434 l 347 521 m 434 781 l 521 781 l 521 521 l 434 521 l 434 781 z "},"¦":{"ha":434,"x_min":174,"x_max":260,"o":"m 174 347 l 260 347 l 260 0 l 174 0 l 174 347 m 174 781 l 260 781 l 260 434 l 174 434 l 174 781 z "},"¨":{"ha":608,"x_min":174,"x_max":434,"o":"m 174 781 l 260 781 l 260 694 l 174 694 l 174 781 m 347 781 l 434 781 l 434 694 l 347 694 l 347 781 z "},"©":{"ha":781,"x_min":87,"x_max":694,"o":"m 347 260 l 521 260 l 521 174 l 347 174 l 347 260 m 260 521 l 347 521 l 347 260 l 260 260 l 260 521 m 347 608 l 521 608 l 521 521 l 347 521 l 347 608 m 608 694 l 694 694 l 694 87 l 608 87 l 608 694 m 174 87 l 608 87 l 608 0 l 174 0 l 174 87 m 87 694 l 174 694 l 174 87 l 87 87 l 87 694 m 174 781 l 608 781 l 608 694 l 174 694 l 174 781 z "},"«":{"ha":694,"x_min":87,"x_max":608,"o":"m 347 434 l 434 434 l 434 347 l 347 347 l 347 434 m 434 521 l 521 521 l 521 434 l 434 434 l 434 521 m 521 608 l 608 608 l 608 521 l 521 521 l 521 608 m 521 260 l 608 260 l 608 174 l 521 174 l 521 260 m 434 347 l 521 347 l 521 260 l 434 260 l 434 347 m 87 434 l 174 434 l 174 347 l 87 347 l 87 434 m 174 521 l 260 521 l 260 434 l 174 434 l 174 521 m 260 608 l 347 608 l 347 521 l 260 521 l 260 608 m 260 260 l 347 260 l 347 174 l 260 174 l 260 260 m 174 347 l 260 347 l 260 260 l 174 260 l 174 347 z "},"¬":{"ha":608,"x_min":87,"x_max":521,"o":"m 87 434 l 521 434 l 521 174 l 434 174 l 434 347 l 87 347 l 87 434 z "},"®":{"ha":781,"x_min":87,"x_max":694,"o":"m 434 260 l 521 260 l 521 174 l 434 174 l 434 260 m 434 521 l 521 521 l 521 347 l 434 347 l 434 521 m 608 694 l 694 694 l 694 87 l 608 87 l 608 694 m 174 87 l 608 87 l 608 0 l 174 0 l 174 87 m 87 694 l 174 694 l 174 87 l 87 87 l 87 694 m 174 781 l 608 781 l 608 694 l 174 694 l 174 781 m 260 608 l 434 608 l 434 521 l 347 521 l 347 347 l 434 347 l 434 260 l 347 260 l 347 174 l 260 174 l 260 608 z "},"°":{"ha":521,"x_min":87,"x_max":434,"o":"m 347 694 l 434 694 l 434 521 l 347 521 l 347 694 m 174 521 l 347 521 l 347 434 l 174 434 l 174 521 m 87 694 l 174 694 l 174 521 l 87 521 l 87 694 m 174 781 l 347 781 l 347 694 l 174 694 l 174 781 z "},"±":{"ha":608,"x_min":87,"x_max":521,"o":"m 87 87 l 521 87 l 521 0 l 87 0 l 87 87 m 260 608 l 347 608 l 347 434 l 521 434 l 521 347 l 347 347 l 347 174 l 260 174 l 260 347 l 87 347 l 87 434 l 260 434 l 260 608 z "},"´":{"ha":434,"x_min":174,"x_max":347,"o":"m 174 694 l 260 694 l 260 608 l 174 608 l 174 694 m 260 781 l 347 781 l 347 694 l 260 694 l 260 781 z "},"µ":{"ha":608,"x_min":87,"x_max":521,"o":"m 434 608 l 521 608 l 521 87 l 434 87 l 434 608 m 87 608 l 174 608 l 174 87 l 434 87 l 434 0 l 174 0 l 174 -174 l 87 -174 l 87 608 z "},"¶":{"ha":781,"x_min":87,"x_max":694,"o":"m 174 781 l 694 781 l 694 0 l 608 0 l 608 694 l 434 694 l 434 0 l 347 0 l 347 347 l 174 347 l 174 434 l 87 434 l 87 694 l 174 694 l 174 781 z "},"·":{"ha":434,"x_min":174,"x_max":260,"o":"m 174 434 l 260 434 l 260 347 l 174 347 l 174 434 z "},"¸":{"ha":434,"x_min":87,"x_max":347,"o":"m 260 -87 l 347 -87 l 347 -174 l 260 -174 l 260 -87 m 87 -174 l 260 -174 l 260 -260 l 87 -260 l 87 -174 m 174 0 l 260 0 l 260 -87 l 174 -87 l 174 0 z "},"»":{"ha":694,"x_min":87,"x_max":608,"o":"m 347 260 l 434 260 l 434 174 l 347 174 l 347 260 m 434 347 l 521 347 l 521 260 l 434 260 l 434 347 m 521 434 l 608 434 l 608 347 l 521 347 l 521 434 m 434 521 l 521 521 l 521 434 l 434 434 l 434 521 m 347 608 l 434 608 l 434 521 l 347 521 l 347 608 m 87 260 l 174 260 l 174 174 l 87 174 l 87 260 m 174 347 l 260 347 l 260 260 l 174 260 l 174 347 m 260 434 l 347 434 l 347 347 l 260 347 l 260 434 m 174 521 l 260 521 l 260 434 l 174 434 l 174 521 m 87 608 l 174 608 l 174 521 l 87 521 l 87 608 z "},"¿":{"ha":608,"x_min":87,"x_max":521,"o":"m 347 521 l 260 521 l 260 608 l 347 608 l 347 521 m 347 174 l 260 174 l 260 434 l 347 434 l 347 174 m 260 87 l 174 87 l 174 174 l 260 174 l 260 87 m 174 -87 l 87 -87 l 87 87 l 174 87 l 174 -87 m 434 -174 l 174 -174 l 174 -87 l 434 -87 l 434 -174 m 521 -87 l 434 -87 l 434 0 l 521 0 l 521 -87 z "},"À":{"ha":608,"x_min":87,"x_max":521,"o":"m 174 1042 l 260 1042 l 260 955 l 174 955 l 174 1042 m 260 955 l 347 955 l 347 868 l 260 868 l 260 955 m 87 694 l 174 694 l 174 347 l 434 347 l 434 694 l 521 694 l 521 0 l 434 0 l 434 260 l 174 260 l 174 0 l 87 0 l 87 694 m 174 781 l 434 781 l 434 694 l 174 694 l 174 781 z "},"Á":{"ha":608,"x_min":87,"x_max":521,"o":"m 260 955 l 347 955 l 347 868 l 260 868 l 260 955 m 347 1042 l 434 1042 l 434 955 l 347 955 l 347 1042 m 87 694 l 174 694 l 174 347 l 434 347 l 434 694 l 521 694 l 521 0 l 434 0 l 434 260 l 174 260 l 174 0 l 87 0 l 87 694 m 174 781 l 434 781 l 434 694 l 174 694 l 174 781 z "},"Â":{"ha":608,"x_min":87,"x_max":521,"o":"m 174 955 l 260 955 l 260 868 l 174 868 l 174 955 m 260 1042 l 347 1042 l 347 955 l 260 955 l 260 1042 m 347 955 l 434 955 l 434 868 l 347 868 l 347 955 m 87 694 l 174 694 l 174 347 l 434 347 l 434 694 l 521 694 l 521 0 l 434 0 l 434 260 l 174 260 l 174 0 l 87 0 l 87 694 m 174 781 l 434 781 l 434 694 l 174 694 l 174 781 z "},"Ã":{"ha":608,"x_min":87,"x_max":608,"o":"m 87 694 l 174 694 l 174 347 l 434 347 l 434 694 l 521 694 l 521 0 l 434 0 l 434 260 l 174 260 l 174 0 l 87 0 l 87 694 m 174 781 l 434 781 l 434 694 l 174 694 l 174 781 z "},"Ä":{"ha":608,"x_min":87,"x_max":521,"o":"m 174 955 l 260 955 l 260 868 l 174 868 l 174 955 m 347 955 l 434 955 l 434 868 l 347 868 l 347 955 m 87 694 l 174 694 l 174 347 l 434 347 l 434 694 l 521 694 l 521 0 l 434 0 l 434 260 l 174 260 l 174 0 l 87 0 l 87 694 m 174 781 l 434 781 l 434 694 l 174 694 l 174 781 z "},"Å":{"ha":608,"x_min":87,"x_max":521,"o":"m 347 1042 l 434 1042 l 434 955 l 347 955 l 347 1042 m 260 955 l 347 955 l 347 868 l 260 868 l 260 955 m 174 1042 l 260 1042 l 260 955 l 174 955 l 174 1042 m 260 1128 l 347 1128 l 347 1042 l 260 1042 l 260 1128 m 87 694 l 174 694 l 174 347 l 434 347 l 434 694 l 521 694 l 521 0 l 434 0 l 434 260 l 174 260 l 174 0 l 87 0 l 87 694 m 174 781 l 434 781 l 434 694 l 174 694 l 174 781 z "},"Æ":{"ha":955,"x_min":87,"x_max":868,"o":"m 174 781 l 868 781 l 868 694 l 521 694 l 521 434 l 694 434 l 694 347 l 521 347 l 521 87 l 868 87 l 868 0 l 434 0 l 434 260 l 174 260 l 174 0 l 87 0 l 87 694 l 174 694 l 174 347 l 434 347 l 434 694 l 174 694 l 174 781 z "},"Ç":{"ha":608,"x_min":87,"x_max":521,"o":"m 347 -87 l 434 -87 l 434 -174 l 347 -174 l 347 -87 m 174 -174 l 347 -174 l 347 -260 l 174 -260 l 174 -174 m 174 87 l 434 87 l 434 0 l 347 0 l 347 -87 l 260 -87 l 260 0 l 174 0 l 174 87 m 434 174 l 521 174 l 521 87 l 434 87 l 434 174 m 87 694 l 174 694 l 174 87 l 87 87 l 87 694 m 174 781 l 434 781 l 434 694 l 174 694 l 174 781 m 434 694 l 521 694 l 521 608 l 434 608 l 434 694 z "},"È":{"ha":608,"x_min":87,"x_max":521,"o":"m 174 1042 l 260 1042 l 260 955 l 174 955 l 174 1042 m 260 955 l 347 955 l 347 868 l 260 868 l 260 955 m 87 781 l 521 781 l 521 694 l 174 694 l 174 434 l 347 434 l 347 347 l 174 347 l 174 87 l 521 87 l 521 0 l 87 0 l 87 781 z "},"É":{"ha":608,"x_min":87,"x_max":521,"o":"m 260 955 l 347 955 l 347 868 l 260 868 l 260 955 m 347 1042 l 434 1042 l 434 955 l 347 955 l 347 1042 m 87 781 l 521 781 l 521 694 l 174 694 l 174 434 l 347 434 l 347 347 l 174 347 l 174 87 l 521 87 l 521 0 l 87 0 l 87 781 z "},"Ê":{"ha":608,"x_min":87,"x_max":521,"o":"m 174 955 l 260 955 l 260 868 l 174 868 l 174 955 m 260 1042 l 347 1042 l 347 955 l 260 955 l 260 1042 m 347 955 l 434 955 l 434 868 l 347 868 l 347 955 m 87 781 l 521 781 l 521 694 l 174 694 l 174 434 l 347 434 l 347 347 l 174 347 l 174 87 l 521 87 l 521 0 l 87 0 l 87 781 z "},"Ë":{"ha":608,"x_min":87,"x_max":521,"o":"m 174 955 l 260 955 l 260 868 l 174 868 l 174 955 m 347 955 l 434 955 l 434 868 l 347 868 l 347 955 m 87 781 l 521 781 l 521 694 l 174 694 l 174 434 l 347 434 l 347 347 l 174 347 l 174 87 l 521 87 l 521 0 l 87 0 l 87 781 z "},"Ì":{"ha":434,"x_min":87,"x_max":260,"o":"m 87 1042 l 174 1042 l 174 955 l 87 955 l 87 1042 m 174 955 l 260 955 l 260 868 l 174 868 l 174 955 m 174 781 l 260 781 l 260 0 l 174 0 l 174 781 z "},"Í":{"ha":434,"x_min":174,"x_max":347,"o":"m 174 955 l 260 955 l 260 868 l 174 868 l 174 955 m 260 1042 l 347 1042 l 347 955 l 260 955 l 260 1042 m 174 781 l 260 781 l 260 0 l 174 0 l 174 781 z "},"Î":{"ha":434,"x_min":87,"x_max":347,"o":"m 87 955 l 174 955 l 174 868 l 87 868 l 87 955 m 174 1042 l 260 1042 l 260 955 l 174 955 l 174 1042 m 260 955 l 347 955 l 347 868 l 260 868 l 260 955 m 174 781 l 260 781 l 260 0 l 174 0 l 174 781 z "},"Ï":{"ha":434,"x_min":87,"x_max":347,"o":"m 87 955 l 174 955 l 174 868 l 87 868 l 87 955 m 260 955 l 347 955 l 347 868 l 260 868 l 260 955 m 174 781 l 260 781 l 260 0 l 174 0 l 174 781 z "},"Ð":{"ha":608,"x_min":0,"x_max":521,"o":"m 87 781 l 434 781 l 434 694 l 174 694 l 174 434 l 347 434 l 347 347 l 174 347 l 174 87 l 434 87 l 434 0 l 87 0 l 87 347 l 0 347 l 0 434 l 87 434 l 87 781 m 434 694 l 521 694 l 521 87 l 434 87 l 434 694 z "},"Ñ":{"ha":608,"x_min":87,"x_max":608,"o":"m 434 781 l 521 781 l 521 0 l 434 0 l 434 260 l 347 260 l 347 347 l 434 347 l 434 781 m 260 434 l 347 434 l 347 347 l 260 347 l 260 434 m 87 781 l 174 781 l 174 521 l 260 521 l 260 434 l 174 434 l 174 0 l 87 0 l 87 781 z "},"Ò":{"ha":608,"x_min":87,"x_max":521,"o":"m 174 1042 l 260 1042 l 260 955 l 174 955 l 174 1042 m 260 955 l 347 955 l 347 868 l 260 868 l 260 955 m 434 694 l 521 694 l 521 87 l 434 87 l 434 694 m 174 87 l 434 87 l 434 0 l 174 0 l 174 87 m 87 694 l 174 694 l 174 87 l 87 87 l 87 694 m 174 781 l 434 781 l 434 694 l 174 694 l 174 781 z "},"Ó":{"ha":608,"x_min":87,"x_max":521,"o":"m 260 955 l 347 955 l 347 868 l 260 868 l 260 955 m 347 1042 l 434 1042 l 434 955 l 347 955 l 347 1042 m 434 694 l 521 694 l 521 87 l 434 87 l 434 694 m 174 87 l 434 87 l 434 0 l 174 0 l 174 87 m 87 694 l 174 694 l 174 87 l 87 87 l 87 694 m 174 781 l 434 781 l 434 694 l 174 694 l 174 781 z "},"Ô":{"ha":608,"x_min":87,"x_max":521,"o":"m 174 955 l 260 955 l 260 868 l 174 868 l 174 955 m 260 1042 l 347 1042 l 347 955 l 260 955 l 260 1042 m 347 955 l 434 955 l 434 868 l 347 868 l 347 955 m 434 694 l 521 694 l 521 87 l 434 87 l 434 694 m 174 87 l 434 87 l 434 0 l 174 0 l 174 87 m 87 694 l 174 694 l 174 87 l 87 87 l 87 694 m 174 781 l 434 781 l 434 694 l 174 694 l 174 781 z "},"Õ":{"ha":608,"x_min":87,"x_max":608,"o":"m 434 694 l 521 694 l 521 87 l 434 87 l 434 694 m 174 87 l 434 87 l 434 0 l 174 0 l 174 87 m 87 694 l 174 694 l 174 87 l 87 87 l 87 694 m 174 781 l 434 781 l 434 694 l 174 694 l 174 781 z "},"Ö":{"ha":608,"x_min":87,"x_max":521,"o":"m 174 955 l 260 955 l 260 868 l 174 868 l 174 955 m 347 955 l 434 955 l 434 868 l 347 868 l 347 955 m 434 694 l 521 694 l 521 87 l 434 87 l 434 694 m 174 87 l 434 87 l 434 0 l 174 0 l 174 87 m 87 694 l 174 694 l 174 87 l 87 87 l 87 694 m 174 781 l 434 781 l 434 694 l 174 694 l 174 781 z "},"×":{"ha":608,"x_min":87,"x_max":521,"o":"m 87 260 l 174 260 l 174 174 l 87 174 l 87 260 m 174 347 l 260 347 l 260 260 l 174 260 l 174 347 m 260 434 l 347 434 l 347 347 l 260 347 l 260 434 m 347 521 l 434 521 l 434 434 l 347 434 l 347 521 m 434 608 l 521 608 l 521 521 l 434 521 l 434 608 m 434 260 l 521 260 l 521 174 l 434 174 l 434 260 m 347 347 l 434 347 l 434 260 l 347 260 l 347 347 m 174 521 l 260 521 l 260 434 l 174 434 l 174 521 m 87 608 l 174 608 l 174 521 l 87 521 l 87 608 z "},"Ø":{"ha":608,"x_min":0,"x_max":608,"o":"m 521 781 l 608 781 l 608 694 l 521 694 l 521 781 m 0 87 l 87 87 l 87 0 l 0 0 l 0 87 m 174 87 l 434 87 l 434 0 l 174 0 l 174 87 m 434 694 l 521 694 l 521 87 l 434 87 l 434 434 l 347 434 l 347 521 l 434 521 l 434 694 m 260 434 l 347 434 l 347 347 l 260 347 l 260 434 m 87 694 l 174 694 l 174 347 l 260 347 l 260 260 l 174 260 l 174 87 l 87 87 l 87 694 m 174 781 l 434 781 l 434 694 l 174 694 l 174 781 z "},"Ù":{"ha":608,"x_min":87,"x_max":521,"o":"m 174 1042 l 260 1042 l 260 955 l 174 955 l 174 1042 m 260 955 l 347 955 l 347 868 l 260 868 l 260 955 m 434 781 l 521 781 l 521 87 l 434 87 l 434 781 m 174 87 l 434 87 l 434 0 l 174 0 l 174 87 m 87 781 l 174 781 l 174 87 l 87 87 l 87 781 z "},"Ú":{"ha":608,"x_min":87,"x_max":521,"o":"m 260 955 l 347 955 l 347 868 l 260 868 l 260 955 m 347 1042 l 434 1042 l 434 955 l 347 955 l 347 1042 m 434 781 l 521 781 l 521 87 l 434 87 l 434 781 m 174 87 l 434 87 l 434 0 l 174 0 l 174 87 m 87 781 l 174 781 l 174 87 l 87 87 l 87 781 z "},"Û":{"ha":608,"x_min":87,"x_max":521,"o":"m 174 955 l 260 955 l 260 868 l 174 868 l 174 955 m 260 1042 l 347 1042 l 347 955 l 260 955 l 260 1042 m 347 955 l 434 955 l 434 868 l 347 868 l 347 955 m 434 781 l 521 781 l 521 87 l 434 87 l 434 781 m 174 87 l 434 87 l 434 0 l 174 0 l 174 87 m 87 781 l 174 781 l 174 87 l 87 87 l 87 781 z "},"Ü":{"ha":608,"x_min":87,"x_max":521,"o":"m 174 955 l 260 955 l 260 868 l 174 868 l 174 955 m 347 955 l 434 955 l 434 868 l 347 868 l 347 955 m 434 781 l 521 781 l 521 87 l 434 87 l 434 781 m 174 87 l 434 87 l 434 0 l 174 0 l 174 87 m 87 781 l 174 781 l 174 87 l 87 87 l 87 781 z "},"Ý":{"ha":608,"x_min":87,"x_max":521,"o":"m 260 955 l 347 955 l 347 868 l 260 868 l 260 955 m 347 1042 l 434 1042 l 434 955 l 347 955 l 347 1042 m 434 781 l 521 781 l 521 521 l 434 521 l 434 781 m 347 521 l 434 521 l 434 434 l 347 434 l 347 521 m 260 434 l 347 434 l 347 0 l 260 0 l 260 434 m 174 521 l 260 521 l 260 434 l 174 434 l 174 521 m 87 781 l 174 781 l 174 521 l 87 521 l 87 781 z "},"Þ":{"ha":608,"x_min":87,"x_max":521,"o":"m 434 521 l 521 521 l 521 260 l 434 260 l 434 521 m 87 781 l 174 781 l 174 608 l 434 608 l 434 521 l 174 521 l 174 260 l 434 260 l 434 174 l 174 174 l 174 0 l 87 0 l 87 781 z "},"ß":{"ha":608,"x_min":87,"x_max":521,"o":"m 260 434 l 347 434 l 347 347 l 260 347 l 260 434 m 347 521 l 434 521 l 434 434 l 347 434 l 347 521 m 347 347 l 434 347 l 434 260 l 347 260 l 347 347 m 87 694 l 174 694 l 174 0 l 87 0 l 87 694 m 434 260 l 521 260 l 521 87 l 434 87 l 434 260 m 260 87 l 434 87 l 434 0 l 260 0 l 260 87 m 434 694 l 521 694 l 521 521 l 434 521 l 434 694 m 174 781 l 434 781 l 434 694 l 174 694 l 174 781 z "},"à":{"ha":608,"x_min":87,"x_max":521,"o":"m 174 868 l 260 868 l 260 781 l 174 781 l 174 868 m 260 781 l 347 781 l 347 694 l 260 694 l 260 781 m 87 521 l 174 521 l 174 434 l 87 434 l 87 521 m 87 260 l 174 260 l 174 87 l 87 87 l 87 260 m 434 521 l 521 521 l 521 0 l 174 0 l 174 87 l 434 87 l 434 260 l 174 260 l 174 347 l 434 347 l 434 521 m 174 608 l 434 608 l 434 521 l 174 521 l 174 608 z "},"á":{"ha":608,"x_min":87,"x_max":521,"o":"m 260 781 l 347 781 l 347 694 l 260 694 l 260 781 m 347 868 l 434 868 l 434 781 l 347 781 l 347 868 m 87 521 l 174 521 l 174 434 l 87 434 l 87 521 m 87 260 l 174 260 l 174 87 l 87 87 l 87 260 m 434 521 l 521 521 l 521 0 l 174 0 l 174 87 l 434 87 l 434 260 l 174 260 l 174 347 l 434 347 l 434 521 m 174 608 l 434 608 l 434 521 l 174 521 l 174 608 z "},"â":{"ha":608,"x_min":87,"x_max":521,"o":"m 174 781 l 260 781 l 260 694 l 174 694 l 174 781 m 260 868 l 347 868 l 347 781 l 260 781 l 260 868 m 347 781 l 434 781 l 434 694 l 347 694 l 347 781 m 87 521 l 174 521 l 174 434 l 87 434 l 87 521 m 87 260 l 174 260 l 174 87 l 87 87 l 87 260 m 434 521 l 521 521 l 521 0 l 174 0 l 174 87 l 434 87 l 434 260 l 174 260 l 174 347 l 434 347 l 434 521 m 174 608 l 434 608 l 434 521 l 174 521 l 174 608 z "},"ã":{"ha":608,"x_min":87,"x_max":608,"o":"m 87 521 l 174 521 l 174 434 l 87 434 l 87 521 m 87 260 l 174 260 l 174 87 l 87 87 l 87 260 m 434 521 l 521 521 l 521 0 l 174 0 l 174 87 l 434 87 l 434 260 l 174 260 l 174 347 l 434 347 l 434 521 m 174 608 l 434 608 l 434 521 l 174 521 l 174 608 z "},"ä":{"ha":608,"x_min":87,"x_max":521,"o":"m 174 781 l 260 781 l 260 694 l 174 694 l 174 781 m 347 781 l 434 781 l 434 694 l 347 694 l 347 781 m 87 521 l 174 521 l 174 434 l 87 434 l 87 521 m 87 260 l 174 260 l 174 87 l 87 87 l 87 260 m 434 521 l 521 521 l 521 0 l 174 0 l 174 87 l 434 87 l 434 260 l 174 260 l 174 347 l 434 347 l 434 521 m 174 608 l 434 608 l 434 521 l 174 521 l 174 608 z "},"å":{"ha":608,"x_min":87,"x_max":521,"o":"m 347 868 l 434 868 l 434 781 l 347 781 l 347 868 m 260 781 l 347 781 l 347 694 l 260 694 l 260 781 m 174 868 l 260 868 l 260 781 l 174 781 l 174 868 m 260 955 l 347 955 l 347 868 l 260 868 l 260 955 m 87 521 l 174 521 l 174 434 l 87 434 l 87 521 m 87 260 l 174 260 l 174 87 l 87 87 l 87 260 m 434 521 l 521 521 l 521 0 l 174 0 l 174 87 l 434 87 l 434 260 l 174 260 l 174 347 l 434 347 l 434 521 m 174 608 l 434 608 l 434 521 l 174 521 l 174 608 z "},"æ":{"ha":955,"x_min":87,"x_max":868,"o":"m 781 174 l 868 174 l 868 87 l 781 87 l 781 174 m 87 521 l 174 521 l 174 434 l 87 434 l 87 521 m 521 87 l 781 87 l 781 0 l 521 0 l 521 87 m 174 87 l 434 87 l 434 0 l 174 0 l 174 87 m 87 260 l 174 260 l 174 87 l 87 87 l 87 260 m 434 521 l 521 521 l 521 347 l 781 347 l 781 521 l 868 521 l 868 260 l 521 260 l 521 87 l 434 87 l 434 260 l 174 260 l 174 347 l 434 347 l 434 521 m 521 608 l 781 608 l 781 521 l 521 521 l 521 608 m 174 608 l 434 608 l 434 521 l 174 521 l 174 608 z "},"ç":{"ha":608,"x_min":87,"x_max":521,"o":"m 347 -87 l 434 -87 l 434 -174 l 347 -174 l 347 -87 m 174 -174 l 347 -174 l 347 -260 l 174 -260 l 174 -174 m 174 87 l 434 87 l 434 0 l 347 0 l 347 -87 l 260 -87 l 260 0 l 174 0 l 174 87 m 434 174 l 521 174 l 521 87 l 434 87 l 434 174 m 87 521 l 174 521 l 174 87 l 87 87 l 87 521 m 174 608 l 434 608 l 434 521 l 174 521 l 174 608 m 434 521 l 521 521 l 521 434 l 434 434 l 434 521 z "},"è":{"ha":608,"x_min":87,"x_max":521,"o":"m 174 868 l 260 868 l 260 781 l 174 781 l 174 868 m 260 781 l 347 781 l 347 694 l 260 694 l 260 781 m 434 174 l 521 174 l 521 87 l 434 87 l 434 174 m 174 87 l 434 87 l 434 0 l 174 0 l 174 87 m 87 521 l 174 521 l 174 347 l 434 347 l 434 521 l 521 521 l 521 260 l 174 260 l 174 87 l 87 87 l 87 521 m 174 608 l 434 608 l 434 521 l 174 521 l 174 608 z "},"é":{"ha":608,"x_min":87,"x_max":521,"o":"m 260 781 l 347 781 l 347 694 l 260 694 l 260 781 m 347 868 l 434 868 l 434 781 l 347 781 l 347 868 m 434 174 l 521 174 l 521 87 l 434 87 l 434 174 m 174 87 l 434 87 l 434 0 l 174 0 l 174 87 m 87 521 l 174 521 l 174 347 l 434 347 l 434 521 l 521 521 l 521 260 l 174 260 l 174 87 l 87 87 l 87 521 m 174 608 l 434 608 l 434 521 l 174 521 l 174 608 z "},"ê":{"ha":608,"x_min":87,"x_max":521,"o":"m 174 781 l 260 781 l 260 694 l 174 694 l 174 781 m 260 868 l 347 868 l 347 781 l 260 781 l 260 868 m 347 781 l 434 781 l 434 694 l 347 694 l 347 781 m 434 174 l 521 174 l 521 87 l 434 87 l 434 174 m 174 87 l 434 87 l 434 0 l 174 0 l 174 87 m 87 521 l 174 521 l 174 347 l 434 347 l 434 521 l 521 521 l 521 260 l 174 260 l 174 87 l 87 87 l 87 521 m 174 608 l 434 608 l 434 521 l 174 521 l 174 608 z "},"ë":{"ha":608,"x_min":87,"x_max":521,"o":"m 174 781 l 260 781 l 260 694 l 174 694 l 174 781 m 347 781 l 434 781 l 434 694 l 347 694 l 347 781 m 434 174 l 521 174 l 521 87 l 434 87 l 434 174 m 174 87 l 434 87 l 434 0 l 174 0 l 174 87 m 87 521 l 174 521 l 174 347 l 434 347 l 434 521 l 521 521 l 521 260 l 174 260 l 174 87 l 87 87 l 87 521 m 174 608 l 434 608 l 434 521 l 174 521 l 174 608 z "},"ì":{"ha":434,"x_min":87,"x_max":260,"o":"m 87 868 l 174 868 l 174 781 l 87 781 l 87 868 m 174 781 l 260 781 l 260 694 l 174 694 l 174 781 m 174 608 l 260 608 l 260 0 l 174 0 l 174 608 z "},"í":{"ha":434,"x_min":174,"x_max":347,"o":"m 174 781 l 260 781 l 260 694 l 174 694 l 174 781 m 260 868 l 347 868 l 347 781 l 260 781 l 260 868 m 174 608 l 260 608 l 260 0 l 174 0 l 174 608 z "},"î":{"ha":434,"x_min":87,"x_max":347,"o":"m 87 781 l 174 781 l 174 694 l 87 694 l 87 781 m 174 868 l 260 868 l 260 781 l 174 781 l 174 868 m 260 781 l 347 781 l 347 694 l 260 694 l 260 781 m 174 608 l 260 608 l 260 0 l 174 0 l 174 608 z "},"ï":{"ha":434,"x_min":87,"x_max":347,"o":"m 87 781 l 174 781 l 174 694 l 87 694 l 87 781 m 260 781 l 347 781 l 347 694 l 260 694 l 260 781 m 174 608 l 260 608 l 260 0 l 174 0 l 174 608 z "},"ð":{"ha":608,"x_min":87,"x_max":608,"o":"m 87 434 l 174 434 l 174 87 l 87 87 l 87 434 m 434 781 l 521 781 l 521 694 l 608 694 l 608 608 l 521 608 l 521 0 l 174 0 l 174 87 l 434 87 l 434 434 l 174 434 l 174 521 l 434 521 l 434 608 l 260 608 l 260 694 l 434 694 l 434 781 z "},"ñ":{"ha":608,"x_min":87,"x_max":608,"o":"m 434 521 l 521 521 l 521 0 l 434 0 l 434 521 m 87 608 l 434 608 l 434 521 l 174 521 l 174 0 l 87 0 l 87 608 z "},"ò":{"ha":608,"x_min":87,"x_max":521,"o":"m 174 868 l 260 868 l 260 781 l 174 781 l 174 868 m 260 781 l 347 781 l 347 694 l 260 694 l 260 781 m 434 521 l 521 521 l 521 87 l 434 87 l 434 521 m 174 87 l 434 87 l 434 0 l 174 0 l 174 87 m 87 521 l 174 521 l 174 87 l 87 87 l 87 521 m 174 608 l 434 608 l 434 521 l 174 521 l 174 608 z "},"ó":{"ha":608,"x_min":87,"x_max":521,"o":"m 260 781 l 347 781 l 347 694 l 260 694 l 260 781 m 347 868 l 434 868 l 434 781 l 347 781 l 347 868 m 434 521 l 521 521 l 521 87 l 434 87 l 434 521 m 174 87 l 434 87 l 434 0 l 174 0 l 174 87 m 87 521 l 174 521 l 174 87 l 87 87 l 87 521 m 174 608 l 434 608 l 434 521 l 174 521 l 174 608 z "},"ô":{"ha":608,"x_min":87,"x_max":521,"o":"m 174 781 l 260 781 l 260 694 l 174 694 l 174 781 m 260 868 l 347 868 l 347 781 l 260 781 l 260 868 m 347 781 l 434 781 l 434 694 l 347 694 l 347 781 m 434 521 l 521 521 l 521 87 l 434 87 l 434 521 m 174 87 l 434 87 l 434 0 l 174 0 l 174 87 m 87 521 l 174 521 l 174 87 l 87 87 l 87 521 m 174 608 l 434 608 l 434 521 l 174 521 l 174 608 z "},"õ":{"ha":608,"x_min":87,"x_max":608,"o":"m 434 521 l 521 521 l 521 87 l 434 87 l 434 521 m 174 87 l 434 87 l 434 0 l 174 0 l 174 87 m 87 521 l 174 521 l 174 87 l 87 87 l 87 521 m 174 608 l 434 608 l 434 521 l 174 521 l 174 608 z "},"ö":{"ha":608,"x_min":87,"x_max":521,"o":"m 174 781 l 260 781 l 260 694 l 174 694 l 174 781 m 347 781 l 434 781 l 434 694 l 347 694 l 347 781 m 434 521 l 521 521 l 521 87 l 434 87 l 434 521 m 174 87 l 434 87 l 434 0 l 174 0 l 174 87 m 87 521 l 174 521 l 174 87 l 87 87 l 87 521 m 174 608 l 434 608 l 434 521 l 174 521 l 174 608 z "},"÷":{"ha":608,"x_min":87,"x_max":521,"o":"m 260 608 l 347 608 l 347 521 l 260 521 l 260 608 m 260 260 l 347 260 l 347 174 l 260 174 l 260 260 m 87 434 l 521 434 l 521 347 l 87 347 l 87 434 z "},"ø":{"ha":608,"x_min":0,"x_max":608,"o":"m 521 608 l 608 608 l 608 521 l 521 521 l 521 608 m 0 87 l 87 87 l 87 0 l 0 0 l 0 87 m 174 87 l 434 87 l 434 0 l 174 0 l 174 87 m 434 521 l 521 521 l 521 87 l 434 87 l 434 347 l 347 347 l 347 434 l 434 434 l 434 521 m 260 347 l 347 347 l 347 260 l 260 260 l 260 347 m 87 521 l 174 521 l 174 260 l 260 260 l 260 174 l 174 174 l 174 87 l 87 87 l 87 521 m 174 608 l 434 608 l 434 521 l 174 521 l 174 608 z "},"ù":{"ha":608,"x_min":87,"x_max":521,"o":"m 174 868 l 260 868 l 260 781 l 174 781 l 174 868 m 260 781 l 347 781 l 347 694 l 260 694 l 260 781 m 434 608 l 521 608 l 521 87 l 434 87 l 434 608 m 174 87 l 434 87 l 434 0 l 174 0 l 174 87 m 87 608 l 174 608 l 174 87 l 87 87 l 87 608 z "},"ú":{"ha":608,"x_min":87,"x_max":521,"o":"m 260 781 l 347 781 l 347 694 l 260 694 l 260 781 m 347 868 l 434 868 l 434 781 l 347 781 l 347 868 m 434 608 l 521 608 l 521 87 l 434 87 l 434 608 m 174 87 l 434 87 l 434 0 l 174 0 l 174 87 m 87 608 l 174 608 l 174 87 l 87 87 l 87 608 z "},"û":{"ha":608,"x_min":87,"x_max":521,"o":"m 174 781 l 260 781 l 260 694 l 174 694 l 174 781 m 260 868 l 347 868 l 347 781 l 260 781 l 260 868 m 347 781 l 434 781 l 434 694 l 347 694 l 347 781 m 434 608 l 521 608 l 521 87 l 434 87 l 434 608 m 174 87 l 434 87 l 434 0 l 174 0 l 174 87 m 87 608 l 174 608 l 174 87 l 87 87 l 87 608 z "},"ü":{"ha":608,"x_min":87,"x_max":521,"o":"m 174 781 l 260 781 l 260 694 l 174 694 l 174 781 m 347 781 l 434 781 l 434 694 l 347 694 l 347 781 m 434 608 l 521 608 l 521 87 l 434 87 l 434 608 m 174 87 l 434 87 l 434 0 l 174 0 l 174 87 m 87 608 l 174 608 l 174 87 l 87 87 l 87 608 z "},"ý":{"ha":608,"x_min":87,"x_max":521,"o":"m 260 781 l 347 781 l 347 694 l 260 694 l 260 781 m 347 868 l 434 868 l 434 781 l 347 781 l 347 868 m 87 0 l 174 0 l 174 -87 l 87 -87 l 87 0 m 174 -87 l 434 -87 l 434 -174 l 174 -174 l 174 -87 m 434 608 l 521 608 l 521 -87 l 434 -87 l 434 87 l 174 87 l 174 174 l 434 174 l 434 608 m 87 608 l 174 608 l 174 174 l 87 174 l 87 608 z "},"þ":{"ha":608,"x_min":87,"x_max":521,"o":"m 434 521 l 521 521 l 521 87 l 434 87 l 434 521 m 87 781 l 174 781 l 174 608 l 434 608 l 434 521 l 174 521 l 174 87 l 434 87 l 434 0 l 174 0 l 174 -174 l 87 -174 l 87 781 z "},"ÿ":{"ha":608,"x_min":87,"x_max":521,"o":"m 174 781 l 260 781 l 260 694 l 174 694 l 174 781 m 347 781 l 434 781 l 434 694 l 347 694 l 347 781 m 87 0 l 174 0 l 174 -87 l 87 -87 l 87 0 m 174 -87 l 434 -87 l 434 -174 l 174 -174 l 174 -87 m 434 608 l 521 608 l 521 -87 l 434 -87 l 434 87 l 174 87 l 174 174 l 434 174 l 434 608 m 87 608 l 174 608 l 174 174 l 87 174 l 87 608 z "},"Ĉ":{"ha":608,"x_min":87,"x_max":521,"o":"m 174 955 l 260 955 l 260 868 l 174 868 l 174 955 m 260 1042 l 347 1042 l 347 955 l 260 955 l 260 1042 m 347 955 l 434 955 l 434 868 l 347 868 l 347 955 m 434 174 l 521 174 l 521 87 l 434 87 l 434 174 m 174 87 l 434 87 l 434 0 l 174 0 l 174 87 m 87 694 l 174 694 l 174 87 l 87 87 l 87 694 m 174 781 l 434 781 l 434 694 l 174 694 l 174 781 m 434 694 l 521 694 l 521 608 l 434 608 l 434 694 z "},"ĉ":{"ha":608,"x_min":87,"x_max":521,"o":"m 174 781 l 260 781 l 260 694 l 174 694 l 174 781 m 260 868 l 347 868 l 347 781 l 260 781 l 260 868 m 347 781 l 434 781 l 434 694 l 347 694 l 347 781 m 434 174 l 521 174 l 521 87 l 434 87 l 434 174 m 174 87 l 434 87 l 434 0 l 174 0 l 174 87 m 87 521 l 174 521 l 174 87 l 87 87 l 87 521 m 174 608 l 434 608 l 434 521 l 174 521 l 174 608 m 434 521 l 521 521 l 521 434 l 434 434 l 434 521 z "},"Č":{"ha":608,"x_min":87,"x_max":521,"o":"m 347 1042 l 434 1042 l 434 955 l 347 955 l 347 1042 m 260 955 l 347 955 l 347 868 l 260 868 l 260 955 m 174 1042 l 260 1042 l 260 955 l 174 955 l 174 1042 m 434 174 l 521 174 l 521 87 l 434 87 l 434 174 m 174 87 l 434 87 l 434 0 l 174 0 l 174 87 m 87 694 l 174 694 l 174 87 l 87 87 l 87 694 m 174 781 l 434 781 l 434 694 l 174 694 l 174 781 m 434 694 l 521 694 l 521 608 l 434 608 l 434 694 z "},"č":{"ha":608,"x_min":87,"x_max":521,"o":"m 347 868 l 434 868 l 434 781 l 347 781 l 347 868 m 260 781 l 347 781 l 347 694 l 260 694 l 260 781 m 174 868 l 260 868 l 260 781 l 174 781 l 174 868 m 434 174 l 521 174 l 521 87 l 434 87 l 434 174 m 174 87 l 434 87 l 434 0 l 174 0 l 174 87 m 87 521 l 174 521 l 174 87 l 87 87 l 87 521 m 174 608 l 434 608 l 434 521 l 174 521 l 174 608 m 434 521 l 521 521 l 521 434 l 434 434 l 434 521 z "},"Ď":{"ha":608,"x_min":87,"x_max":521,"o":"m 347 1042 l 434 1042 l 434 955 l 347 955 l 347 1042 m 260 955 l 347 955 l 347 868 l 260 868 l 260 955 m 174 1042 l 260 1042 l 260 955 l 174 955 l 174 1042 m 434 694 l 521 694 l 521 87 l 434 87 l 434 694 m 87 781 l 434 781 l 434 694 l 174 694 l 174 87 l 434 87 l 434 0 l 87 0 l 87 781 z "},"ď":{"ha":1042,"x_min":87,"x_max":868,"o":"m 694 608 l 781 608 l 781 521 l 694 521 l 694 608 m 781 781 l 868 781 l 868 608 l 781 608 l 781 781 m 87 521 l 174 521 l 174 87 l 87 87 l 87 521 m 434 781 l 521 781 l 521 0 l 174 0 l 174 87 l 434 87 l 434 521 l 174 521 l 174 608 l 434 608 l 434 781 z "},"Ě":{"ha":608,"x_min":87,"x_max":521,"o":"m 347 1042 l 434 1042 l 434 955 l 347 955 l 347 1042 m 260 955 l 347 955 l 347 868 l 260 868 l 260 955 m 174 1042 l 260 1042 l 260 955 l 174 955 l 174 1042 m 87 781 l 521 781 l 521 694 l 174 694 l 174 434 l 347 434 l 347 347 l 174 347 l 174 87 l 521 87 l 521 0 l 87 0 l 87 781 z "},"ě":{"ha":608,"x_min":87,"x_max":521,"o":"m 347 868 l 434 868 l 434 781 l 347 781 l 347 868 m 260 781 l 347 781 l 347 694 l 260 694 l 260 781 m 174 868 l 260 868 l 260 781 l 174 781 l 174 868 m 434 174 l 521 174 l 521 87 l 434 87 l 434 174 m 174 87 l 434 87 l 434 0 l 174 0 l 174 87 m 87 521 l 174 521 l 174 347 l 434 347 l 434 521 l 521 521 l 521 260 l 174 260 l 174 87 l 87 87 l 87 521 m 174 608 l 434 608 l 434 521 l 174 521 l 174 608 z "},"Ĝ":{"ha":608,"x_min":87,"x_max":521,"o":"m 174 955 l 260 955 l 260 868 l 174 868 l 174 955 m 260 1042 l 347 1042 l 347 955 l 260 955 l 260 1042 m 347 955 l 434 955 l 434 868 l 347 868 l 347 955 m 347 434 l 521 434 l 521 0 l 174 0 l 174 87 l 434 87 l 434 347 l 347 347 l 347 434 m 87 694 l 174 694 l 174 87 l 87 87 l 87 694 m 174 781 l 434 781 l 434 694 l 174 694 l 174 781 m 434 694 l 521 694 l 521 608 l 434 608 l 434 694 z "},"ĝ":{"ha":608,"x_min":87,"x_max":521,"o":"m 174 781 l 260 781 l 260 694 l 174 694 l 174 781 m 260 868 l 347 868 l 347 781 l 260 781 l 260 868 m 347 781 l 434 781 l 434 694 l 347 694 l 347 781 m 87 0 l 174 0 l 174 -87 l 87 -87 l 87 0 m 174 -87 l 434 -87 l 434 -174 l 174 -174 l 174 -87 m 174 608 l 521 608 l 521 -87 l 434 -87 l 434 87 l 174 87 l 174 174 l 434 174 l 434 521 l 174 521 l 174 608 m 87 521 l 174 521 l 174 174 l 87 174 l 87 521 z "},"Ĥ":{"ha":608,"x_min":87,"x_max":521,"o":"m 174 955 l 260 955 l 260 868 l 174 868 l 174 955 m 260 1042 l 347 1042 l 347 955 l 260 955 l 260 1042 m 347 955 l 434 955 l 434 868 l 347 868 l 347 955 m 87 781 l 174 781 l 174 434 l 434 434 l 434 781 l 521 781 l 521 0 l 434 0 l 434 347 l 174 347 l 174 0 l 87 0 l 87 781 z "},"ĥ":{"ha":608,"x_min":87,"x_max":521,"o":"m 174 955 l 260 955 l 260 868 l 174 868 l 174 955 m 260 1042 l 347 1042 l 347 955 l 260 955 l 260 1042 m 347 955 l 434 955 l 434 868 l 347 868 l 347 955 m 434 521 l 521 521 l 521 0 l 434 0 l 434 521 m 87 781 l 174 781 l 174 608 l 434 608 l 434 521 l 174 521 l 174 0 l 87 0 l 87 781 z "},"ı":{"ha":434,"x_min":174,"x_max":260,"o":"m 174 608 l 260 608 l 260 0 l 174 0 l 174 608 z "},"Ĵ":{"ha":608,"x_min":87,"x_max":521,"o":"m 174 955 l 260 955 l 260 868 l 174 868 l 174 955 m 260 1042 l 347 1042 l 347 955 l 260 955 l 260 1042 m 347 955 l 434 955 l 434 868 l 347 868 l 347 955 m 434 781 l 521 781 l 521 87 l 434 87 l 434 781 m 174 87 l 434 87 l 434 0 l 174 0 l 174 87 m 87 174 l 174 174 l 174 87 l 87 87 l 87 174 z "},"ĵ":{"ha":608,"x_min":87,"x_max":521,"o":"m 174 781 l 260 781 l 260 694 l 174 694 l 174 781 m 260 868 l 347 868 l 347 781 l 260 781 l 260 868 m 347 781 l 434 781 l 434 694 l 347 694 l 347 781 m 434 608 l 521 608 l 521 -87 l 434 -87 l 434 608 m 174 -87 l 434 -87 l 434 -174 l 174 -174 l 174 -87 m 87 0 l 174 0 l 174 -87 l 87 -87 l 87 0 z "},"Ň":{"ha":608,"x_min":87,"x_max":521,"o":"m 347 1042 l 434 1042 l 434 955 l 347 955 l 347 1042 m 260 955 l 347 955 l 347 868 l 260 868 l 260 955 m 174 1042 l 260 1042 l 260 955 l 174 955 l 174 1042 m 434 781 l 521 781 l 521 0 l 434 0 l 434 260 l 347 260 l 347 347 l 434 347 l 434 781 m 260 434 l 347 434 l 347 347 l 260 347 l 260 434 m 87 781 l 174 781 l 174 521 l 260 521 l 260 434 l 174 434 l 174 0 l 87 0 l 87 781 z "},"ň":{"ha":608,"x_min":87,"x_max":521,"o":"m 347 868 l 434 868 l 434 781 l 347 781 l 347 868 m 260 781 l 347 781 l 347 694 l 260 694 l 260 781 m 174 868 l 260 868 l 260 781 l 174 781 l 174 868 m 434 521 l 521 521 l 521 0 l 434 0 l 434 521 m 87 608 l 434 608 l 434 521 l 174 521 l 174 0 l 87 0 l 87 608 z "},"Œ":{"ha":955,"x_min":87,"x_max":868,"o":"m 87 694 l 174 694 l 174 87 l 87 87 l 87 694 m 174 781 l 868 781 l 868 694 l 521 694 l 521 434 l 694 434 l 694 347 l 521 347 l 521 87 l 868 87 l 868 0 l 174 0 l 174 87 l 434 87 l 434 694 l 174 694 l 174 781 z "},"œ":{"ha":955,"x_min":87,"x_max":868,"o":"m 781 174 l 868 174 l 868 87 l 781 87 l 781 174 m 521 87 l 781 87 l 781 0 l 521 0 l 521 87 m 174 87 l 434 87 l 434 0 l 174 0 l 174 87 m 87 521 l 174 521 l 174 87 l 87 87 l 87 521 m 434 521 l 521 521 l 521 347 l 781 347 l 781 521 l 868 521 l 868 260 l 521 260 l 521 87 l 434 87 l 434 521 m 521 608 l 781 608 l 781 521 l 521 521 l 521 608 m 174 608 l 434 608 l 434 521 l 174 521 l 174 608 z "},"Ř":{"ha":608,"x_min":87,"x_max":521,"o":"m 347 1042 l 434 1042 l 434 955 l 347 955 l 347 1042 m 260 955 l 347 955 l 347 868 l 260 868 l 260 955 m 174 1042 l 260 1042 l 260 955 l 174 955 l 174 1042 m 87 781 l 434 781 l 434 694 l 174 694 l 174 434 l 434 434 l 434 347 l 347 347 l 347 260 l 260 260 l 260 347 l 174 347 l 174 0 l 87 0 l 87 781 m 434 694 l 521 694 l 521 434 l 434 434 l 434 694 m 347 260 l 434 260 l 434 174 l 347 174 l 347 260 m 434 174 l 521 174 l 521 0 l 434 0 l 434 174 z "},"ř":{"ha":608,"x_min":87,"x_max":521,"o":"m 347 868 l 434 868 l 434 781 l 347 781 l 347 868 m 260 781 l 347 781 l 347 694 l 260 694 l 260 781 m 174 868 l 260 868 l 260 781 l 174 781 l 174 868 m 347 608 l 521 608 l 521 521 l 347 521 l 347 608 m 260 521 l 347 521 l 347 434 l 260 434 l 260 521 m 87 608 l 174 608 l 174 434 l 260 434 l 260 347 l 174 347 l 174 0 l 87 0 l 87 608 z "},"Ŝ":{"ha":608,"x_min":87,"x_max":521,"o":"m 174 955 l 260 955 l 260 868 l 174 868 l 174 955 m 260 1042 l 347 1042 l 347 955 l 260 955 l 260 1042 m 347 955 l 434 955 l 434 868 l 347 868 l 347 955 m 87 694 l 174 694 l 174 434 l 87 434 l 87 694 m 434 347 l 521 347 l 521 87 l 434 87 l 434 347 m 174 87 l 434 87 l 434 0 l 174 0 l 174 87 m 87 174 l 174 174 l 174 87 l 87 87 l 87 174 m 174 434 l 434 434 l 434 347 l 174 347 l 174 434 m 434 694 l 521 694 l 521 608 l 434 608 l 434 694 m 174 781 l 434 781 l 434 694 l 174 694 l 174 781 z "},"ŝ":{"ha":608,"x_min":87,"x_max":521,"o":"m 174 781 l 260 781 l 260 694 l 174 694 l 174 781 m 260 868 l 347 868 l 347 781 l 260 781 l 260 868 m 347 781 l 434 781 l 434 694 l 347 694 l 347 781 m 87 521 l 174 521 l 174 347 l 87 347 l 87 521 m 434 260 l 521 260 l 521 87 l 434 87 l 434 260 m 174 87 l 434 87 l 434 0 l 174 0 l 174 87 m 87 174 l 174 174 l 174 87 l 87 87 l 87 174 m 174 347 l 434 347 l 434 260 l 174 260 l 174 347 m 434 521 l 521 521 l 521 434 l 434 434 l 434 521 m 174 608 l 434 608 l 434 521 l 174 521 l 174 608 z "},"Š":{"ha":608,"x_min":87,"x_max":521,"o":"m 347 1042 l 434 1042 l 434 955 l 347 955 l 347 1042 m 260 955 l 347 955 l 347 868 l 260 868 l 260 955 m 174 1042 l 260 1042 l 260 955 l 174 955 l 174 1042 m 87 694 l 174 694 l 174 434 l 87 434 l 87 694 m 434 347 l 521 347 l 521 87 l 434 87 l 434 347 m 174 87 l 434 87 l 434 0 l 174 0 l 174 87 m 87 174 l 174 174 l 174 87 l 87 87 l 87 174 m 174 434 l 434 434 l 434 347 l 174 347 l 174 434 m 434 694 l 521 694 l 521 608 l 434 608 l 434 694 m 174 781 l 434 781 l 434 694 l 174 694 l 174 781 z "},"š":{"ha":608,"x_min":87,"x_max":521,"o":"m 347 868 l 434 868 l 434 781 l 347 781 l 347 868 m 260 781 l 347 781 l 347 694 l 260 694 l 260 781 m 174 868 l 260 868 l 260 781 l 174 781 l 174 868 m 87 521 l 174 521 l 174 347 l 87 347 l 87 521 m 434 260 l 521 260 l 521 87 l 434 87 l 434 260 m 174 87 l 434 87 l 434 0 l 174 0 l 174 87 m 87 174 l 174 174 l 174 87 l 87 87 l 87 174 m 174 347 l 434 347 l 434 260 l 174 260 l 174 347 m 434 521 l 521 521 l 521 434 l 434 434 l 434 521 m 174 608 l 434 608 l 434 521 l 174 521 l 174 608 z "},"Ť":{"ha":608,"x_min":87,"x_max":521,"o":"m 347 1042 l 434 1042 l 434 955 l 347 955 l 347 1042 m 260 955 l 347 955 l 347 868 l 260 868 l 260 955 m 174 1042 l 260 1042 l 260 955 l 174 955 l 174 1042 m 87 781 l 521 781 l 521 694 l 347 694 l 347 0 l 260 0 l 260 694 l 87 694 l 87 781 z "},"ť":{"ha":955,"x_min":87,"x_max":781,"o":"m 608 608 l 694 608 l 694 521 l 608 521 l 608 608 m 694 781 l 781 781 l 781 608 l 694 608 l 694 781 m 174 694 l 260 694 l 260 608 l 434 608 l 434 521 l 260 521 l 260 87 l 174 87 l 174 521 l 87 521 l 87 608 l 174 608 l 174 694 m 260 87 l 434 87 l 434 0 l 260 0 l 260 87 z "},"Ŭ":{"ha":608,"x_min":87,"x_max":521,"o":"m 434 1042 l 521 1042 l 521 955 l 434 955 l 434 1042 m 174 955 l 434 955 l 434 868 l 174 868 l 174 955 m 87 1042 l 174 1042 l 174 955 l 87 955 l 87 1042 m 434 781 l 521 781 l 521 87 l 434 87 l 434 781 m 174 87 l 434 87 l 434 0 l 174 0 l 174 87 m 87 781 l 174 781 l 174 87 l 87 87 l 87 781 z "},"ŭ":{"ha":608,"x_min":87,"x_max":521,"o":"m 434 868 l 521 868 l 521 781 l 434 781 l 434 868 m 174 781 l 434 781 l 434 694 l 174 694 l 174 781 m 87 868 l 174 868 l 174 781 l 87 781 l 87 868 m 434 608 l 521 608 l 521 87 l 434 87 l 434 608 m 174 87 l 434 87 l 434 0 l 174 0 l 174 87 m 87 608 l 174 608 l 174 87 l 87 87 l 87 608 z "},"Ů":{"ha":608,"x_min":87,"x_max":521,"o":"m 347 1042 l 434 1042 l 434 955 l 347 955 l 347 1042 m 260 955 l 347 955 l 347 868 l 260 868 l 260 955 m 174 1042 l 260 1042 l 260 955 l 174 955 l 174 1042 m 260 1128 l 347 1128 l 347 1042 l 260 1042 l 260 1128 m 434 781 l 521 781 l 521 87 l 434 87 l 434 781 m 174 87 l 434 87 l 434 0 l 174 0 l 174 87 m 87 781 l 174 781 l 174 87 l 87 87 l 87 781 z "},"ů":{"ha":608,"x_min":87,"x_max":521,"o":"m 347 868 l 434 868 l 434 781 l 347 781 l 347 868 m 260 781 l 347 781 l 347 694 l 260 694 l 260 781 m 174 868 l 260 868 l 260 781 l 174 781 l 174 868 m 260 955 l 347 955 l 347 868 l 260 868 l 260 955 m 434 608 l 521 608 l 521 87 l 434 87 l 434 608 m 174 87 l 434 87 l 434 0 l 174 0 l 174 87 m 87 608 l 174 608 l 174 87 l 87 87 l 87 608 z "},"Ÿ":{"ha":608,"x_min":87,"x_max":521,"o":"m 174 955 l 260 955 l 260 868 l 174 868 l 174 955 m 347 955 l 434 955 l 434 868 l 347 868 l 347 955 m 434 781 l 521 781 l 521 521 l 434 521 l 434 781 m 347 521 l 434 521 l 434 434 l 347 434 l 347 521 m 260 434 l 347 434 l 347 0 l 260 0 l 260 434 m 174 521 l 260 521 l 260 434 l 174 434 l 174 521 m 87 781 l 174 781 l 174 521 l 87 521 l 87 781 z "},"Ž":{"ha":608,"x_min":87,"x_max":521,"o":"m 347 1042 l 434 1042 l 434 955 l 347 955 l 347 1042 m 260 955 l 347 955 l 347 868 l 260 868 l 260 955 m 174 1042 l 260 1042 l 260 955 l 174 955 l 174 1042 m 87 260 l 174 260 l 174 87 l 521 87 l 521 0 l 87 0 l 87 260 m 174 260 l 174 347 l 260 347 l 260 260 l 174 260 m 260 347 l 260 434 l 347 434 l 347 347 l 260 347 m 347 434 l 347 521 l 434 521 l 434 434 l 347 434 m 87 781 l 521 781 l 521 521 l 434 521 l 434 694 l 87 694 l 87 781 z "},"ž":{"ha":608,"x_min":87,"x_max":521,"o":"m 347 868 l 434 868 l 434 781 l 347 781 l 347 868 m 260 781 l 347 781 l 347 694 l 260 694 l 260 781 m 174 868 l 260 868 l 260 781 l 174 781 l 174 868 m 87 174 l 174 174 l 174 87 l 521 87 l 521 0 l 87 0 l 87 174 m 174 174 l 174 260 l 260 260 l 260 174 l 174 174 m 260 260 l 260 347 l 347 347 l 347 260 l 260 260 m 347 347 l 347 434 l 434 434 l 434 347 l 347 347 m 87 608 l 521 608 l 521 434 l 434 434 l 434 521 l 87 521 l 87 608 z "},"ˆ":{"ha":608,"x_min":174,"x_max":434,"o":"m 174 694 l 260 694 l 260 608 l 174 608 l 174 694 m 260 781 l 347 781 l 347 694 l 260 694 l 260 781 m 347 694 l 434 694 l 434 608 l 347 608 l 347 694 z "},"ˇ":{"ha":608,"x_min":174,"x_max":434,"o":"m 347 781 l 434 781 l 434 694 l 347 694 l 347 781 m 260 694 l 347 694 l 347 608 l 260 608 l 260 694 m 174 781 l 260 781 l 260 694 l 174 694 l 174 781 z "},"˘":{"ha":608,"x_min":87,"x_max":521,"o":"m 434 781 l 521 781 l 521 694 l 434 694 l 434 781 m 174 694 l 434 694 l 434 608 l 174 608 l 174 694 m 87 781 l 174 781 l 174 694 l 87 694 l 87 781 z "},"˚":{"ha":434,"x_min":87,"x_max":347,"o":"m 260 781 l 347 781 l 347 694 l 260 694 l 260 781 m 174 694 l 260 694 l 260 608 l 174 608 l 174 694 m 87 781 l 174 781 l 174 694 l 87 694 l 87 781 m 174 868 l 260 868 l 260 781 l 174 781 l 174 868 z "},"˜":{"ha":694,"x_min":87,"x_max":608,"o":"m 347 694 l 521 694 l 521 608 l 347 608 l 347 694 m 521 781 l 608 781 l 608 694 l 521 694 l 521 781 m 87 694 l 174 694 l 174 608 l 87 608 l 87 694 m 174 781 l 347 781 l 347 694 l 174 694 l 174 781 z "},"–":{"ha":521,"x_min":87,"x_max":434,"o":"m 87 434 l 434 434 l 434 347 l 87 347 l 87 434 z "},"—":{"ha":694,"x_min":87,"x_max":608,"o":"m 87 434 l 608 434 l 608 347 l 87 347 l 87 434 z "},"‘":{"ha":434,"x_min":174,"x_max":347,"o":"m 174 694 l 260 694 l 260 521 l 174 521 l 174 694 m 260 781 l 347 781 l 347 694 l 260 694 l 260 781 z "},"’":{"ha":434,"x_min":87,"x_max":260,"o":"m 87 608 l 174 608 l 174 521 l 87 521 l 87 608 m 174 781 l 260 781 l 260 608 l 174 608 l 174 781 z "},"‚":{"ha":434,"x_min":87,"x_max":260,"o":"m 87 -87 l 174 -87 l 174 -174 l 87 -174 l 87 -87 m 174 87 l 260 87 l 260 -87 l 174 -87 l 174 87 z "},"“":{"ha":608,"x_min":174,"x_max":521,"o":"m 347 694 l 434 694 l 434 521 l 347 521 l 347 694 m 434 781 l 521 781 l 521 694 l 434 694 l 434 781 m 174 694 l 260 694 l 260 521 l 174 521 l 174 694 m 260 781 l 347 781 l 347 694 l 260 694 l 260 781 z "},"”":{"ha":608,"x_min":87,"x_max":434,"o":"m 260 608 l 347 608 l 347 521 l 260 521 l 260 608 m 347 781 l 434 781 l 434 608 l 347 608 l 347 781 m 87 608 l 174 608 l 174 521 l 87 521 l 87 608 m 174 781 l 260 781 l 260 608 l 174 608 l 174 781 z "},"„":{"ha":608,"x_min":87,"x_max":434,"o":"m 260 -87 l 347 -87 l 347 -174 l 260 -174 l 260 -87 m 347 87 l 434 87 l 434 -87 l 347 -87 l 347 87 m 87 -87 l 174 -87 l 174 -174 l 87 -174 l 87 -87 m 174 87 l 260 87 l 260 -87 l 174 -87 l 174 87 z "},"†":{"ha":608,"x_min":87,"x_max":521,"o":"m 260 781 l 347 781 l 347 608 l 521 608 l 521 521 l 347 521 l 347 0 l 260 0 l 260 521 l 87 521 l 87 608 l 260 608 l 260 781 z "},"‡":{"ha":608,"x_min":87,"x_max":521,"o":"m 260 781 l 347 781 l 347 608 l 521 608 l 521 521 l 347 521 l 347 260 l 521 260 l 521 174 l 347 174 l 347 0 l 260 0 l 260 174 l 87 174 l 87 260 l 260 260 l 260 521 l 87 521 l 87 608 l 260 608 l 260 781 z "},"•":{"ha":521,"x_min":174,"x_max":347,"o":"m 174 434 l 347 434 l 347 260 l 174 260 l 174 434 z "},"…":{"ha":781,"x_min":87,"x_max":694,"o":"m 608 87 l 694 87 l 694 0 l 608 0 l 608 87 m 347 87 l 434 87 l 434 0 l 347 0 l 347 87 m 87 87 l 174 87 l 174 0 l 87 0 l 87 87 z "},"‰":{"ha":1128,"x_min":87,"x_max":1042,"o":"m 955 260 l 1042 260 l 1042 87 l 955 87 l 955 260 m 868 87 l 955 87 l 955 0 l 868 0 l 868 87 m 781 260 l 868 260 l 868 87 l 781 87 l 781 260 m 868 347 l 955 347 l 955 260 l 868 260 l 868 347 m 608 260 l 694 260 l 694 87 l 608 87 l 608 260 m 521 87 l 608 87 l 608 0 l 521 0 l 521 87 m 434 260 l 521 260 l 521 87 l 434 87 l 434 260 m 521 347 l 608 347 l 608 260 l 521 260 l 521 347 m 174 260 l 260 260 l 260 174 l 174 174 l 174 260 m 260 347 l 347 347 l 347 260 l 260 260 l 260 347 m 347 434 l 434 434 l 434 347 l 347 347 l 347 434 m 434 521 l 521 521 l 521 434 l 434 434 l 434 521 m 521 608 l 608 608 l 608 521 l 521 521 l 521 608 m 260 694 l 347 694 l 347 521 l 260 521 l 260 694 m 174 521 l 260 521 l 260 434 l 174 434 l 174 521 m 87 694 l 174 694 l 174 521 l 87 521 l 87 694 m 174 781 l 260 781 l 260 694 l 174 694 l 174 781 z "},"‹":{"ha":608,"x_min":260,"x_max":521,"o":"m 260 434 l 347 434 l 347 347 l 260 347 l 260 434 m 347 521 l 434 521 l 434 434 l 347 434 l 347 521 m 434 608 l 521 608 l 521 521 l 434 521 l 434 608 m 434 260 l 521 260 l 521 174 l 434 174 l 434 260 m 347 347 l 434 347 l 434 260 l 347 260 l 347 347 z "},"›":{"ha":608,"x_min":87,"x_max":347,"o":"m 87 260 l 174 260 l 174 174 l 87 174 l 87 260 m 174 347 l 260 347 l 260 260 l 174 260 l 174 347 m 260 434 l 347 434 l 347 347 l 260 347 l 260 434 m 174 521 l 260 521 l 260 434 l 174 434 l 174 521 m 87 608 l 174 608 l 174 521 l 87 521 l 87 608 z "},"€":{"ha":694,"x_min":87,"x_max":608,"o":"m 174 694 l 260 694 l 260 521 l 521 521 l 521 434 l 260 434 l 260 347 l 434 347 l 434 260 l 260 260 l 260 87 l 174 87 l 174 260 l 87 260 l 87 347 l 174 347 l 174 434 l 87 434 l 87 521 l 174 521 l 174 694 m 521 174 l 608 174 l 608 87 l 521 87 l 521 174 m 260 87 l 521 87 l 521 0 l 260 0 l 260 87 m 260 781 l 521 781 l 521 694 l 260 694 l 260 781 m 521 694 l 608 694 l 608 608 l 521 608 l 521 694 z "},"₱":{"ha":781,"x_min":87,"x_max":694,"o":"m 174 781 l 521 781 l 521 694 l 260 694 l 260 608 l 521 608 l 521 694 l 608 694 l 608 608 l 694 608 l 694 521 l 608 521 l 608 434 l 521 434 l 521 521 l 260 521 l 260 434 l 521 434 l 521 347 l 260 347 l 260 0 l 174 0 l 174 521 l 87 521 l 87 608 l 174 608 l 174 781 z "},"₷":{"ha":781,"x_min":0,"x_max":694,"o":"m 347 781 l 608 781 l 608 694 l 347 694 l 347 781 m 608 694 l 694 694 l 694 608 l 608 608 l 608 694 m 347 434 l 608 434 l 608 347 l 347 347 l 347 434 m 608 347 l 694 347 l 694 87 l 608 87 l 608 347 m 260 694 l 347 694 l 347 434 l 260 434 l 260 694 m 0 260 l 87 260 l 87 174 l 0 174 l 0 260 m 174 260 l 260 260 l 260 174 l 174 174 l 174 260 m 347 260 l 434 260 l 434 174 l 347 174 l 347 260 m 87 174 l 174 174 l 174 87 l 260 87 l 260 174 l 347 174 l 347 87 l 434 87 l 434 174 l 521 174 l 521 87 l 608 87 l 608 0 l 521 0 l 521 -87 l 434 -87 l 434 0 l 347 0 l 347 -87 l 260 -87 l 260 0 l 174 0 l 174 -87 l 87 -87 l 87 174 z "},"℗":{"ha":781,"x_min":87,"x_max":694,"o":"m 434 521 l 521 521 l 521 347 l 434 347 l 434 521 m 608 694 l 694 694 l 694 87 l 608 87 l 608 694 m 174 87 l 608 87 l 608 0 l 174 0 l 174 87 m 87 694 l 174 694 l 174 87 l 87 87 l 87 694 m 174 781 l 608 781 l 608 694 l 174 694 l 174 781 m 260 608 l 434 608 l 434 521 l 347 521 l 347 347 l 434 347 l 434 260 l 347 260 l 347 174 l 260 174 l 260 608 z "},"™":{"ha":955,"x_min":87,"x_max":868,"o":"m 781 955 l 868 955 l 868 434 l 781 434 l 781 781 l 694 781 l 694 868 l 781 868 l 781 955 m 608 781 l 694 781 l 694 608 l 608 608 l 608 781 m 434 955 l 521 955 l 521 868 l 608 868 l 608 781 l 521 781 l 521 434 l 434 434 l 434 955 m 87 955 l 347 955 l 347 868 l 260 868 l 260 434 l 174 434 l 174 868 l 87 868 l 87 955 z "}}}
